M48
; DRILL file {KiCad 8.0.0-8.0.0-1~ubuntu20.04.1} date 2024-03-10T03:56:23-0500
; FORMAT={-:-/ absolute / inch / decimal}
; #@! TF.CreationDate,2024-03-10T03:56:23-05:00
; #@! TF.GenerationSoftware,Kicad,Pcbnew,8.0.0-8.0.0-1~ubuntu20.04.1
; #@! TF.FileFunction,Plated,1,2,PTH
FMAT,2
INCH
; #@! TA.AperFunction,Plated,PTH,ViaDrill
T1C0.0130
; #@! TA.AperFunction,Plated,PTH,ComponentDrill
T2C0.0315
; #@! TA.AperFunction,Plated,PTH,ComponentDrill
T3C0.0394
%
G90
G05
T1
X4.2717Y-3.3858
X4.6063Y-3.3661
X4.626Y-2.9724
X4.9606Y-3.2087
X4.9803Y-3.0342
X5.0197Y-3.1299
X5.2165Y-2.9331
X5.4134Y-3.2677
X5.5118Y-3.3661
X5.5709Y-3.189
X5.5906Y-3.0118
T2
X4.4488Y-3.1374
X4.4488Y-3.4374
T3
X4.2717Y-2.7921
X4.2717Y-2.8921
X4.2717Y-2.9921
X4.2717Y-3.0921
X4.2717Y-3.1921
X4.2717Y-3.2921
X4.5835Y-3.6024
X4.6835Y-3.6024
X4.7835Y-3.6024
X4.8835Y-3.6024
X4.9835Y-3.6024
X5.1378Y-3.0709
X5.1378Y-3.1709
X5.1378Y-3.2709
X5.1378Y-3.3709
X5.315Y-3.3661
X5.315Y-3.4661
X5.315Y-3.5661
X5.315Y-3.6661
X5.5709Y-3.2858
X5.5709Y-3.3858
X5.5709Y-3.4858
X5.5709Y-3.5858
M30
