%TF.GenerationSoftware,KiCad,Pcbnew,8.0.0-8.0.0-1~ubuntu20.04.1*%
%TF.CreationDate,2024-03-10T03:56:21-05:00*%
%TF.ProjectId,avr16dd14_dev_board,61767231-3664-4643-9134-5f6465765f62,rev?*%
%TF.SameCoordinates,Original*%
%TF.FileFunction,Legend,Top*%
%TF.FilePolarity,Positive*%
%FSLAX46Y46*%
G04 Gerber Fmt 4.6, Leading zero omitted, Abs format (unit mm)*
G04 Created by KiCad (PCBNEW 8.0.0-8.0.0-1~ubuntu20.04.1) date 2024-03-10 03:56:21*
%MOMM*%
%LPD*%
G01*
G04 APERTURE LIST*
%ADD10C,0.100000*%
%ADD11C,0.150000*%
%ADD12C,0.120000*%
%ADD13C,0.200000*%
G04 APERTURE END LIST*
D10*
X128896895Y-83743734D02*
X128096895Y-83743734D01*
X128096895Y-83743734D02*
X128096895Y-83438972D01*
X128096895Y-83438972D02*
X128134990Y-83362782D01*
X128134990Y-83362782D02*
X128173085Y-83324687D01*
X128173085Y-83324687D02*
X128249276Y-83286591D01*
X128249276Y-83286591D02*
X128363561Y-83286591D01*
X128363561Y-83286591D02*
X128439752Y-83324687D01*
X128439752Y-83324687D02*
X128477847Y-83362782D01*
X128477847Y-83362782D02*
X128515942Y-83438972D01*
X128515942Y-83438972D02*
X128515942Y-83743734D01*
X128896895Y-82943734D02*
X128096895Y-82943734D01*
X128096895Y-82943734D02*
X128096895Y-82753258D01*
X128096895Y-82753258D02*
X128134990Y-82638972D01*
X128134990Y-82638972D02*
X128211180Y-82562782D01*
X128211180Y-82562782D02*
X128287371Y-82524687D01*
X128287371Y-82524687D02*
X128439752Y-82486591D01*
X128439752Y-82486591D02*
X128554038Y-82486591D01*
X128554038Y-82486591D02*
X128706419Y-82524687D01*
X128706419Y-82524687D02*
X128782609Y-82562782D01*
X128782609Y-82562782D02*
X128858800Y-82638972D01*
X128858800Y-82638972D02*
X128896895Y-82753258D01*
X128896895Y-82753258D02*
X128896895Y-82943734D01*
X128096895Y-82219925D02*
X128096895Y-81686591D01*
X128096895Y-81686591D02*
X128896895Y-82029449D01*
X128896895Y-81243734D02*
X128096895Y-81243734D01*
X128096895Y-81243734D02*
X128096895Y-80938972D01*
X128096895Y-80938972D02*
X128134990Y-80862782D01*
X128134990Y-80862782D02*
X128173085Y-80824687D01*
X128173085Y-80824687D02*
X128249276Y-80786591D01*
X128249276Y-80786591D02*
X128363561Y-80786591D01*
X128363561Y-80786591D02*
X128439752Y-80824687D01*
X128439752Y-80824687D02*
X128477847Y-80862782D01*
X128477847Y-80862782D02*
X128515942Y-80938972D01*
X128515942Y-80938972D02*
X128515942Y-81243734D01*
X128896895Y-80443734D02*
X128096895Y-80443734D01*
X128096895Y-80443734D02*
X128096895Y-80253258D01*
X128096895Y-80253258D02*
X128134990Y-80138972D01*
X128134990Y-80138972D02*
X128211180Y-80062782D01*
X128211180Y-80062782D02*
X128287371Y-80024687D01*
X128287371Y-80024687D02*
X128439752Y-79986591D01*
X128439752Y-79986591D02*
X128554038Y-79986591D01*
X128554038Y-79986591D02*
X128706419Y-80024687D01*
X128706419Y-80024687D02*
X128782609Y-80062782D01*
X128782609Y-80062782D02*
X128858800Y-80138972D01*
X128858800Y-80138972D02*
X128896895Y-80253258D01*
X128896895Y-80253258D02*
X128896895Y-80443734D01*
X128096895Y-79300877D02*
X128096895Y-79453258D01*
X128096895Y-79453258D02*
X128134990Y-79529449D01*
X128134990Y-79529449D02*
X128173085Y-79567544D01*
X128173085Y-79567544D02*
X128287371Y-79643734D01*
X128287371Y-79643734D02*
X128439752Y-79681830D01*
X128439752Y-79681830D02*
X128744514Y-79681830D01*
X128744514Y-79681830D02*
X128820704Y-79643734D01*
X128820704Y-79643734D02*
X128858800Y-79605639D01*
X128858800Y-79605639D02*
X128896895Y-79529449D01*
X128896895Y-79529449D02*
X128896895Y-79377068D01*
X128896895Y-79377068D02*
X128858800Y-79300877D01*
X128858800Y-79300877D02*
X128820704Y-79262782D01*
X128820704Y-79262782D02*
X128744514Y-79224687D01*
X128744514Y-79224687D02*
X128554038Y-79224687D01*
X128554038Y-79224687D02*
X128477847Y-79262782D01*
X128477847Y-79262782D02*
X128439752Y-79300877D01*
X128439752Y-79300877D02*
X128401657Y-79377068D01*
X128401657Y-79377068D02*
X128401657Y-79529449D01*
X128401657Y-79529449D02*
X128439752Y-79605639D01*
X128439752Y-79605639D02*
X128477847Y-79643734D01*
X128477847Y-79643734D02*
X128554038Y-79681830D01*
X128896895Y-78743734D02*
X128096895Y-78743734D01*
X128096895Y-78743734D02*
X128096895Y-78438972D01*
X128096895Y-78438972D02*
X128134990Y-78362782D01*
X128134990Y-78362782D02*
X128173085Y-78324687D01*
X128173085Y-78324687D02*
X128249276Y-78286591D01*
X128249276Y-78286591D02*
X128363561Y-78286591D01*
X128363561Y-78286591D02*
X128439752Y-78324687D01*
X128439752Y-78324687D02*
X128477847Y-78362782D01*
X128477847Y-78362782D02*
X128515942Y-78438972D01*
X128515942Y-78438972D02*
X128515942Y-78743734D01*
X128896895Y-77943734D02*
X128096895Y-77943734D01*
X128096895Y-77943734D02*
X128096895Y-77753258D01*
X128096895Y-77753258D02*
X128134990Y-77638972D01*
X128134990Y-77638972D02*
X128211180Y-77562782D01*
X128211180Y-77562782D02*
X128287371Y-77524687D01*
X128287371Y-77524687D02*
X128439752Y-77486591D01*
X128439752Y-77486591D02*
X128554038Y-77486591D01*
X128554038Y-77486591D02*
X128706419Y-77524687D01*
X128706419Y-77524687D02*
X128782609Y-77562782D01*
X128782609Y-77562782D02*
X128858800Y-77638972D01*
X128858800Y-77638972D02*
X128896895Y-77753258D01*
X128896895Y-77753258D02*
X128896895Y-77943734D01*
X128096895Y-76762782D02*
X128096895Y-77143734D01*
X128096895Y-77143734D02*
X128477847Y-77181830D01*
X128477847Y-77181830D02*
X128439752Y-77143734D01*
X128439752Y-77143734D02*
X128401657Y-77067544D01*
X128401657Y-77067544D02*
X128401657Y-76877068D01*
X128401657Y-76877068D02*
X128439752Y-76800877D01*
X128439752Y-76800877D02*
X128477847Y-76762782D01*
X128477847Y-76762782D02*
X128554038Y-76724687D01*
X128554038Y-76724687D02*
X128744514Y-76724687D01*
X128744514Y-76724687D02*
X128820704Y-76762782D01*
X128820704Y-76762782D02*
X128858800Y-76800877D01*
X128858800Y-76800877D02*
X128896895Y-76877068D01*
X128896895Y-76877068D02*
X128896895Y-77067544D01*
X128896895Y-77067544D02*
X128858800Y-77143734D01*
X128858800Y-77143734D02*
X128820704Y-77181830D01*
X114429765Y-86297679D02*
X114886908Y-86297679D01*
X114658336Y-87097679D02*
X114658336Y-86297679D01*
X115077384Y-86297679D02*
X115610718Y-87097679D01*
X115610718Y-86297679D02*
X115077384Y-87097679D01*
X114905956Y-80002441D02*
X114639289Y-79621488D01*
X114448813Y-80002441D02*
X114448813Y-79202441D01*
X114448813Y-79202441D02*
X114753575Y-79202441D01*
X114753575Y-79202441D02*
X114829765Y-79240536D01*
X114829765Y-79240536D02*
X114867860Y-79278631D01*
X114867860Y-79278631D02*
X114905956Y-79354822D01*
X114905956Y-79354822D02*
X114905956Y-79469107D01*
X114905956Y-79469107D02*
X114867860Y-79545298D01*
X114867860Y-79545298D02*
X114829765Y-79583393D01*
X114829765Y-79583393D02*
X114753575Y-79621488D01*
X114753575Y-79621488D02*
X114448813Y-79621488D01*
X115172622Y-79202441D02*
X115705956Y-80002441D01*
X115705956Y-79202441D02*
X115172622Y-80002441D01*
X110896895Y-73786591D02*
X110515942Y-74053258D01*
X110896895Y-74243734D02*
X110096895Y-74243734D01*
X110096895Y-74243734D02*
X110096895Y-73938972D01*
X110096895Y-73938972D02*
X110134990Y-73862782D01*
X110134990Y-73862782D02*
X110173085Y-73824687D01*
X110173085Y-73824687D02*
X110249276Y-73786591D01*
X110249276Y-73786591D02*
X110363561Y-73786591D01*
X110363561Y-73786591D02*
X110439752Y-73824687D01*
X110439752Y-73824687D02*
X110477847Y-73862782D01*
X110477847Y-73862782D02*
X110515942Y-73938972D01*
X110515942Y-73938972D02*
X110515942Y-74243734D01*
X110096895Y-73519925D02*
X110896895Y-72986591D01*
X110096895Y-72986591D02*
X110896895Y-73519925D01*
X110096895Y-76858020D02*
X110096895Y-76400877D01*
X110896895Y-76629449D02*
X110096895Y-76629449D01*
X110096895Y-76210401D02*
X110896895Y-75677067D01*
X110096895Y-75677067D02*
X110896895Y-76210401D01*
X110096895Y-79358020D02*
X110896895Y-79091353D01*
X110896895Y-79091353D02*
X110096895Y-78824687D01*
X110896895Y-78558020D02*
X110096895Y-78558020D01*
X110896895Y-78177068D02*
X110096895Y-78177068D01*
X110096895Y-78177068D02*
X110896895Y-77719925D01*
X110896895Y-77719925D02*
X110096895Y-77719925D01*
X110134990Y-84324687D02*
X110096895Y-84400877D01*
X110096895Y-84400877D02*
X110096895Y-84515163D01*
X110096895Y-84515163D02*
X110134990Y-84629449D01*
X110134990Y-84629449D02*
X110211180Y-84705639D01*
X110211180Y-84705639D02*
X110287371Y-84743734D01*
X110287371Y-84743734D02*
X110439752Y-84781830D01*
X110439752Y-84781830D02*
X110554038Y-84781830D01*
X110554038Y-84781830D02*
X110706419Y-84743734D01*
X110706419Y-84743734D02*
X110782609Y-84705639D01*
X110782609Y-84705639D02*
X110858800Y-84629449D01*
X110858800Y-84629449D02*
X110896895Y-84515163D01*
X110896895Y-84515163D02*
X110896895Y-84438972D01*
X110896895Y-84438972D02*
X110858800Y-84324687D01*
X110858800Y-84324687D02*
X110820704Y-84286591D01*
X110820704Y-84286591D02*
X110554038Y-84286591D01*
X110554038Y-84286591D02*
X110554038Y-84438972D01*
X110896895Y-83943734D02*
X110096895Y-83943734D01*
X110096895Y-83943734D02*
X110896895Y-83486591D01*
X110896895Y-83486591D02*
X110096895Y-83486591D01*
X110896895Y-83105639D02*
X110096895Y-83105639D01*
X110096895Y-83105639D02*
X110096895Y-82915163D01*
X110096895Y-82915163D02*
X110134990Y-82800877D01*
X110134990Y-82800877D02*
X110211180Y-82724687D01*
X110211180Y-82724687D02*
X110287371Y-82686592D01*
X110287371Y-82686592D02*
X110439752Y-82648496D01*
X110439752Y-82648496D02*
X110554038Y-82648496D01*
X110554038Y-82648496D02*
X110706419Y-82686592D01*
X110706419Y-82686592D02*
X110782609Y-82724687D01*
X110782609Y-82724687D02*
X110858800Y-82800877D01*
X110858800Y-82800877D02*
X110896895Y-82915163D01*
X110896895Y-82915163D02*
X110896895Y-83105639D01*
X105596895Y-81367544D02*
X105596895Y-80967544D01*
X106396895Y-81167544D02*
X105596895Y-81167544D01*
X105596895Y-80834211D02*
X105596895Y-80434211D01*
X106396895Y-80634211D02*
X105596895Y-80634211D01*
X106396895Y-79867545D02*
X106396895Y-80200878D01*
X106396895Y-80200878D02*
X105596895Y-80200878D01*
X106092133Y-79100878D02*
X106092133Y-78567545D01*
X105863561Y-78234211D02*
X106092133Y-77700878D01*
X106092133Y-77700878D02*
X106320704Y-78234211D01*
X105596895Y-76834211D02*
X106244514Y-76834211D01*
X106244514Y-76834211D02*
X106320704Y-76800878D01*
X106320704Y-76800878D02*
X106358800Y-76767544D01*
X106358800Y-76767544D02*
X106396895Y-76700878D01*
X106396895Y-76700878D02*
X106396895Y-76567544D01*
X106396895Y-76567544D02*
X106358800Y-76500878D01*
X106358800Y-76500878D02*
X106320704Y-76467544D01*
X106320704Y-76467544D02*
X106244514Y-76434211D01*
X106244514Y-76434211D02*
X105596895Y-76434211D01*
X106396895Y-76100878D02*
X105596895Y-76100878D01*
X105596895Y-76100878D02*
X105596895Y-75834211D01*
X105596895Y-75834211D02*
X105634990Y-75767545D01*
X105634990Y-75767545D02*
X105673085Y-75734211D01*
X105673085Y-75734211D02*
X105749276Y-75700878D01*
X105749276Y-75700878D02*
X105863561Y-75700878D01*
X105863561Y-75700878D02*
X105939752Y-75734211D01*
X105939752Y-75734211D02*
X105977847Y-75767545D01*
X105977847Y-75767545D02*
X106015942Y-75834211D01*
X106015942Y-75834211D02*
X106015942Y-76100878D01*
X106396895Y-75400878D02*
X105596895Y-75400878D01*
X105596895Y-75400878D02*
X105596895Y-75234211D01*
X105596895Y-75234211D02*
X105634990Y-75134211D01*
X105634990Y-75134211D02*
X105711180Y-75067545D01*
X105711180Y-75067545D02*
X105787371Y-75034211D01*
X105787371Y-75034211D02*
X105939752Y-75000878D01*
X105939752Y-75000878D02*
X106054038Y-75000878D01*
X106054038Y-75000878D02*
X106206419Y-75034211D01*
X106206419Y-75034211D02*
X106282609Y-75067545D01*
X106282609Y-75067545D02*
X106358800Y-75134211D01*
X106358800Y-75134211D02*
X106396895Y-75234211D01*
X106396895Y-75234211D02*
X106396895Y-75400878D01*
X106396895Y-74700878D02*
X105596895Y-74700878D01*
X106396895Y-73834212D02*
X105596895Y-73834212D01*
X105596895Y-73834212D02*
X105596895Y-73567545D01*
X105596895Y-73567545D02*
X105634990Y-73500879D01*
X105634990Y-73500879D02*
X105673085Y-73467545D01*
X105673085Y-73467545D02*
X105749276Y-73434212D01*
X105749276Y-73434212D02*
X105863561Y-73434212D01*
X105863561Y-73434212D02*
X105939752Y-73467545D01*
X105939752Y-73467545D02*
X105977847Y-73500879D01*
X105977847Y-73500879D02*
X106015942Y-73567545D01*
X106015942Y-73567545D02*
X106015942Y-73834212D01*
X105596895Y-73000879D02*
X105596895Y-72867545D01*
X105596895Y-72867545D02*
X105634990Y-72800879D01*
X105634990Y-72800879D02*
X105711180Y-72734212D01*
X105711180Y-72734212D02*
X105863561Y-72700879D01*
X105863561Y-72700879D02*
X106130228Y-72700879D01*
X106130228Y-72700879D02*
X106282609Y-72734212D01*
X106282609Y-72734212D02*
X106358800Y-72800879D01*
X106358800Y-72800879D02*
X106396895Y-72867545D01*
X106396895Y-72867545D02*
X106396895Y-73000879D01*
X106396895Y-73000879D02*
X106358800Y-73067545D01*
X106358800Y-73067545D02*
X106282609Y-73134212D01*
X106282609Y-73134212D02*
X106130228Y-73167545D01*
X106130228Y-73167545D02*
X105863561Y-73167545D01*
X105863561Y-73167545D02*
X105711180Y-73134212D01*
X105711180Y-73134212D02*
X105634990Y-73067545D01*
X105634990Y-73067545D02*
X105596895Y-73000879D01*
X106396895Y-72000879D02*
X106015942Y-72234212D01*
X106396895Y-72400879D02*
X105596895Y-72400879D01*
X105596895Y-72400879D02*
X105596895Y-72134212D01*
X105596895Y-72134212D02*
X105634990Y-72067546D01*
X105634990Y-72067546D02*
X105673085Y-72034212D01*
X105673085Y-72034212D02*
X105749276Y-72000879D01*
X105749276Y-72000879D02*
X105863561Y-72000879D01*
X105863561Y-72000879D02*
X105939752Y-72034212D01*
X105939752Y-72034212D02*
X105977847Y-72067546D01*
X105977847Y-72067546D02*
X106015942Y-72134212D01*
X106015942Y-72134212D02*
X106015942Y-72400879D01*
X105596895Y-71800879D02*
X105596895Y-71400879D01*
X106396895Y-71600879D02*
X105596895Y-71600879D01*
X128896895Y-92243734D02*
X128096895Y-92243734D01*
X128096895Y-92243734D02*
X128096895Y-91938972D01*
X128096895Y-91938972D02*
X128134990Y-91862782D01*
X128134990Y-91862782D02*
X128173085Y-91824687D01*
X128173085Y-91824687D02*
X128249276Y-91786591D01*
X128249276Y-91786591D02*
X128363561Y-91786591D01*
X128363561Y-91786591D02*
X128439752Y-91824687D01*
X128439752Y-91824687D02*
X128477847Y-91862782D01*
X128477847Y-91862782D02*
X128515942Y-91938972D01*
X128515942Y-91938972D02*
X128515942Y-92243734D01*
X128896895Y-91443734D02*
X128096895Y-91443734D01*
X128096895Y-91443734D02*
X128096895Y-91253258D01*
X128096895Y-91253258D02*
X128134990Y-91138972D01*
X128134990Y-91138972D02*
X128211180Y-91062782D01*
X128211180Y-91062782D02*
X128287371Y-91024687D01*
X128287371Y-91024687D02*
X128439752Y-90986591D01*
X128439752Y-90986591D02*
X128554038Y-90986591D01*
X128554038Y-90986591D02*
X128706419Y-91024687D01*
X128706419Y-91024687D02*
X128782609Y-91062782D01*
X128782609Y-91062782D02*
X128858800Y-91138972D01*
X128858800Y-91138972D02*
X128896895Y-91253258D01*
X128896895Y-91253258D02*
X128896895Y-91443734D01*
X128363561Y-90300877D02*
X128896895Y-90300877D01*
X128058800Y-90491353D02*
X128630228Y-90681830D01*
X128630228Y-90681830D02*
X128630228Y-90186591D01*
X123756265Y-93896895D02*
X123756265Y-93096895D01*
X123756265Y-93096895D02*
X124061027Y-93096895D01*
X124061027Y-93096895D02*
X124137217Y-93134990D01*
X124137217Y-93134990D02*
X124175312Y-93173085D01*
X124175312Y-93173085D02*
X124213408Y-93249276D01*
X124213408Y-93249276D02*
X124213408Y-93363561D01*
X124213408Y-93363561D02*
X124175312Y-93439752D01*
X124175312Y-93439752D02*
X124137217Y-93477847D01*
X124137217Y-93477847D02*
X124061027Y-93515942D01*
X124061027Y-93515942D02*
X123756265Y-93515942D01*
X125013408Y-93820704D02*
X124975312Y-93858800D01*
X124975312Y-93858800D02*
X124861027Y-93896895D01*
X124861027Y-93896895D02*
X124784836Y-93896895D01*
X124784836Y-93896895D02*
X124670550Y-93858800D01*
X124670550Y-93858800D02*
X124594360Y-93782609D01*
X124594360Y-93782609D02*
X124556265Y-93706419D01*
X124556265Y-93706419D02*
X124518169Y-93554038D01*
X124518169Y-93554038D02*
X124518169Y-93439752D01*
X124518169Y-93439752D02*
X124556265Y-93287371D01*
X124556265Y-93287371D02*
X124594360Y-93211180D01*
X124594360Y-93211180D02*
X124670550Y-93134990D01*
X124670550Y-93134990D02*
X124784836Y-93096895D01*
X124784836Y-93096895D02*
X124861027Y-93096895D01*
X124861027Y-93096895D02*
X124975312Y-93134990D01*
X124975312Y-93134990D02*
X125013408Y-93173085D01*
X125280074Y-93096895D02*
X125775312Y-93096895D01*
X125775312Y-93096895D02*
X125508646Y-93401657D01*
X125508646Y-93401657D02*
X125622931Y-93401657D01*
X125622931Y-93401657D02*
X125699122Y-93439752D01*
X125699122Y-93439752D02*
X125737217Y-93477847D01*
X125737217Y-93477847D02*
X125775312Y-93554038D01*
X125775312Y-93554038D02*
X125775312Y-93744514D01*
X125775312Y-93744514D02*
X125737217Y-93820704D01*
X125737217Y-93820704D02*
X125699122Y-93858800D01*
X125699122Y-93858800D02*
X125622931Y-93896895D01*
X125622931Y-93896895D02*
X125394360Y-93896895D01*
X125394360Y-93896895D02*
X125318169Y-93858800D01*
X125318169Y-93858800D02*
X125280074Y-93820704D01*
X120756265Y-93896895D02*
X120756265Y-93096895D01*
X120756265Y-93096895D02*
X121061027Y-93096895D01*
X121061027Y-93096895D02*
X121137217Y-93134990D01*
X121137217Y-93134990D02*
X121175312Y-93173085D01*
X121175312Y-93173085D02*
X121213408Y-93249276D01*
X121213408Y-93249276D02*
X121213408Y-93363561D01*
X121213408Y-93363561D02*
X121175312Y-93439752D01*
X121175312Y-93439752D02*
X121137217Y-93477847D01*
X121137217Y-93477847D02*
X121061027Y-93515942D01*
X121061027Y-93515942D02*
X120756265Y-93515942D01*
X122013408Y-93820704D02*
X121975312Y-93858800D01*
X121975312Y-93858800D02*
X121861027Y-93896895D01*
X121861027Y-93896895D02*
X121784836Y-93896895D01*
X121784836Y-93896895D02*
X121670550Y-93858800D01*
X121670550Y-93858800D02*
X121594360Y-93782609D01*
X121594360Y-93782609D02*
X121556265Y-93706419D01*
X121556265Y-93706419D02*
X121518169Y-93554038D01*
X121518169Y-93554038D02*
X121518169Y-93439752D01*
X121518169Y-93439752D02*
X121556265Y-93287371D01*
X121556265Y-93287371D02*
X121594360Y-93211180D01*
X121594360Y-93211180D02*
X121670550Y-93134990D01*
X121670550Y-93134990D02*
X121784836Y-93096895D01*
X121784836Y-93096895D02*
X121861027Y-93096895D01*
X121861027Y-93096895D02*
X121975312Y-93134990D01*
X121975312Y-93134990D02*
X122013408Y-93173085D01*
X122318169Y-93173085D02*
X122356265Y-93134990D01*
X122356265Y-93134990D02*
X122432455Y-93096895D01*
X122432455Y-93096895D02*
X122622931Y-93096895D01*
X122622931Y-93096895D02*
X122699122Y-93134990D01*
X122699122Y-93134990D02*
X122737217Y-93173085D01*
X122737217Y-93173085D02*
X122775312Y-93249276D01*
X122775312Y-93249276D02*
X122775312Y-93325466D01*
X122775312Y-93325466D02*
X122737217Y-93439752D01*
X122737217Y-93439752D02*
X122280074Y-93896895D01*
X122280074Y-93896895D02*
X122775312Y-93896895D01*
X117756265Y-93831013D02*
X117756265Y-93031013D01*
X117756265Y-93031013D02*
X118061027Y-93031013D01*
X118061027Y-93031013D02*
X118137217Y-93069108D01*
X118137217Y-93069108D02*
X118175312Y-93107203D01*
X118175312Y-93107203D02*
X118213408Y-93183394D01*
X118213408Y-93183394D02*
X118213408Y-93297679D01*
X118213408Y-93297679D02*
X118175312Y-93373870D01*
X118175312Y-93373870D02*
X118137217Y-93411965D01*
X118137217Y-93411965D02*
X118061027Y-93450060D01*
X118061027Y-93450060D02*
X117756265Y-93450060D01*
X119013408Y-93754822D02*
X118975312Y-93792918D01*
X118975312Y-93792918D02*
X118861027Y-93831013D01*
X118861027Y-93831013D02*
X118784836Y-93831013D01*
X118784836Y-93831013D02*
X118670550Y-93792918D01*
X118670550Y-93792918D02*
X118594360Y-93716727D01*
X118594360Y-93716727D02*
X118556265Y-93640537D01*
X118556265Y-93640537D02*
X118518169Y-93488156D01*
X118518169Y-93488156D02*
X118518169Y-93373870D01*
X118518169Y-93373870D02*
X118556265Y-93221489D01*
X118556265Y-93221489D02*
X118594360Y-93145298D01*
X118594360Y-93145298D02*
X118670550Y-93069108D01*
X118670550Y-93069108D02*
X118784836Y-93031013D01*
X118784836Y-93031013D02*
X118861027Y-93031013D01*
X118861027Y-93031013D02*
X118975312Y-93069108D01*
X118975312Y-93069108D02*
X119013408Y-93107203D01*
X119775312Y-93831013D02*
X119318169Y-93831013D01*
X119546741Y-93831013D02*
X119546741Y-93031013D01*
X119546741Y-93031013D02*
X119470550Y-93145298D01*
X119470550Y-93145298D02*
X119394360Y-93221489D01*
X119394360Y-93221489D02*
X119318169Y-93259584D01*
X115734528Y-93831013D02*
X115467861Y-93450060D01*
X115277385Y-93831013D02*
X115277385Y-93031013D01*
X115277385Y-93031013D02*
X115582147Y-93031013D01*
X115582147Y-93031013D02*
X115658337Y-93069108D01*
X115658337Y-93069108D02*
X115696432Y-93107203D01*
X115696432Y-93107203D02*
X115734528Y-93183394D01*
X115734528Y-93183394D02*
X115734528Y-93297679D01*
X115734528Y-93297679D02*
X115696432Y-93373870D01*
X115696432Y-93373870D02*
X115658337Y-93411965D01*
X115658337Y-93411965D02*
X115582147Y-93450060D01*
X115582147Y-93450060D02*
X115277385Y-93450060D01*
X116039289Y-93792918D02*
X116153575Y-93831013D01*
X116153575Y-93831013D02*
X116344051Y-93831013D01*
X116344051Y-93831013D02*
X116420242Y-93792918D01*
X116420242Y-93792918D02*
X116458337Y-93754822D01*
X116458337Y-93754822D02*
X116496432Y-93678632D01*
X116496432Y-93678632D02*
X116496432Y-93602441D01*
X116496432Y-93602441D02*
X116458337Y-93526251D01*
X116458337Y-93526251D02*
X116420242Y-93488156D01*
X116420242Y-93488156D02*
X116344051Y-93450060D01*
X116344051Y-93450060D02*
X116191670Y-93411965D01*
X116191670Y-93411965D02*
X116115480Y-93373870D01*
X116115480Y-93373870D02*
X116077385Y-93335775D01*
X116077385Y-93335775D02*
X116039289Y-93259584D01*
X116039289Y-93259584D02*
X116039289Y-93183394D01*
X116039289Y-93183394D02*
X116077385Y-93107203D01*
X116077385Y-93107203D02*
X116115480Y-93069108D01*
X116115480Y-93069108D02*
X116191670Y-93031013D01*
X116191670Y-93031013D02*
X116382147Y-93031013D01*
X116382147Y-93031013D02*
X116496432Y-93069108D01*
X116725004Y-93031013D02*
X117182147Y-93031013D01*
X116953575Y-93831013D02*
X116953575Y-93031013D01*
X132634990Y-88824687D02*
X132596895Y-88900877D01*
X132596895Y-88900877D02*
X132596895Y-89015163D01*
X132596895Y-89015163D02*
X132634990Y-89129449D01*
X132634990Y-89129449D02*
X132711180Y-89205639D01*
X132711180Y-89205639D02*
X132787371Y-89243734D01*
X132787371Y-89243734D02*
X132939752Y-89281830D01*
X132939752Y-89281830D02*
X133054038Y-89281830D01*
X133054038Y-89281830D02*
X133206419Y-89243734D01*
X133206419Y-89243734D02*
X133282609Y-89205639D01*
X133282609Y-89205639D02*
X133358800Y-89129449D01*
X133358800Y-89129449D02*
X133396895Y-89015163D01*
X133396895Y-89015163D02*
X133396895Y-88938972D01*
X133396895Y-88938972D02*
X133358800Y-88824687D01*
X133358800Y-88824687D02*
X133320704Y-88786591D01*
X133320704Y-88786591D02*
X133054038Y-88786591D01*
X133054038Y-88786591D02*
X133054038Y-88938972D01*
X133396895Y-88443734D02*
X132596895Y-88443734D01*
X132596895Y-88443734D02*
X133396895Y-87986591D01*
X133396895Y-87986591D02*
X132596895Y-87986591D01*
X133396895Y-87605639D02*
X132596895Y-87605639D01*
X132596895Y-87605639D02*
X132596895Y-87415163D01*
X132596895Y-87415163D02*
X132634990Y-87300877D01*
X132634990Y-87300877D02*
X132711180Y-87224687D01*
X132711180Y-87224687D02*
X132787371Y-87186592D01*
X132787371Y-87186592D02*
X132939752Y-87148496D01*
X132939752Y-87148496D02*
X133054038Y-87148496D01*
X133054038Y-87148496D02*
X133206419Y-87186592D01*
X133206419Y-87186592D02*
X133282609Y-87224687D01*
X133282609Y-87224687D02*
X133358800Y-87300877D01*
X133358800Y-87300877D02*
X133396895Y-87415163D01*
X133396895Y-87415163D02*
X133396895Y-87605639D01*
X132766895Y-94768020D02*
X133566895Y-94501353D01*
X133566895Y-94501353D02*
X132766895Y-94234687D01*
X133566895Y-93968020D02*
X132766895Y-93968020D01*
X133566895Y-93587068D02*
X132766895Y-93587068D01*
X132766895Y-93587068D02*
X133566895Y-93129925D01*
X133566895Y-93129925D02*
X132766895Y-93129925D01*
X133358800Y-86281830D02*
X133396895Y-86167544D01*
X133396895Y-86167544D02*
X133396895Y-85977068D01*
X133396895Y-85977068D02*
X133358800Y-85900877D01*
X133358800Y-85900877D02*
X133320704Y-85862782D01*
X133320704Y-85862782D02*
X133244514Y-85824687D01*
X133244514Y-85824687D02*
X133168323Y-85824687D01*
X133168323Y-85824687D02*
X133092133Y-85862782D01*
X133092133Y-85862782D02*
X133054038Y-85900877D01*
X133054038Y-85900877D02*
X133015942Y-85977068D01*
X133015942Y-85977068D02*
X132977847Y-86129449D01*
X132977847Y-86129449D02*
X132939752Y-86205639D01*
X132939752Y-86205639D02*
X132901657Y-86243734D01*
X132901657Y-86243734D02*
X132825466Y-86281830D01*
X132825466Y-86281830D02*
X132749276Y-86281830D01*
X132749276Y-86281830D02*
X132673085Y-86243734D01*
X132673085Y-86243734D02*
X132634990Y-86205639D01*
X132634990Y-86205639D02*
X132596895Y-86129449D01*
X132596895Y-86129449D02*
X132596895Y-85938972D01*
X132596895Y-85938972D02*
X132634990Y-85824687D01*
X133320704Y-85024686D02*
X133358800Y-85062782D01*
X133358800Y-85062782D02*
X133396895Y-85177067D01*
X133396895Y-85177067D02*
X133396895Y-85253258D01*
X133396895Y-85253258D02*
X133358800Y-85367544D01*
X133358800Y-85367544D02*
X133282609Y-85443734D01*
X133282609Y-85443734D02*
X133206419Y-85481829D01*
X133206419Y-85481829D02*
X133054038Y-85519925D01*
X133054038Y-85519925D02*
X132939752Y-85519925D01*
X132939752Y-85519925D02*
X132787371Y-85481829D01*
X132787371Y-85481829D02*
X132711180Y-85443734D01*
X132711180Y-85443734D02*
X132634990Y-85367544D01*
X132634990Y-85367544D02*
X132596895Y-85253258D01*
X132596895Y-85253258D02*
X132596895Y-85177067D01*
X132596895Y-85177067D02*
X132634990Y-85062782D01*
X132634990Y-85062782D02*
X132673085Y-85024686D01*
X133396895Y-84300877D02*
X133396895Y-84681829D01*
X133396895Y-84681829D02*
X132596895Y-84681829D01*
X133509109Y-92019139D02*
X133547204Y-91904853D01*
X133547204Y-91904853D02*
X133547204Y-91714377D01*
X133547204Y-91714377D02*
X133509109Y-91638186D01*
X133509109Y-91638186D02*
X133471013Y-91600091D01*
X133471013Y-91600091D02*
X133394823Y-91561996D01*
X133394823Y-91561996D02*
X133318632Y-91561996D01*
X133318632Y-91561996D02*
X133242442Y-91600091D01*
X133242442Y-91600091D02*
X133204347Y-91638186D01*
X133204347Y-91638186D02*
X133166251Y-91714377D01*
X133166251Y-91714377D02*
X133128156Y-91866758D01*
X133128156Y-91866758D02*
X133090061Y-91942948D01*
X133090061Y-91942948D02*
X133051966Y-91981043D01*
X133051966Y-91981043D02*
X132975775Y-92019139D01*
X132975775Y-92019139D02*
X132899585Y-92019139D01*
X132899585Y-92019139D02*
X132823394Y-91981043D01*
X132823394Y-91981043D02*
X132785299Y-91942948D01*
X132785299Y-91942948D02*
X132747204Y-91866758D01*
X132747204Y-91866758D02*
X132747204Y-91676281D01*
X132747204Y-91676281D02*
X132785299Y-91561996D01*
X133547204Y-91219138D02*
X132747204Y-91219138D01*
X132747204Y-91219138D02*
X132747204Y-91028662D01*
X132747204Y-91028662D02*
X132785299Y-90914376D01*
X132785299Y-90914376D02*
X132861489Y-90838186D01*
X132861489Y-90838186D02*
X132937680Y-90800091D01*
X132937680Y-90800091D02*
X133090061Y-90761995D01*
X133090061Y-90761995D02*
X133204347Y-90761995D01*
X133204347Y-90761995D02*
X133356728Y-90800091D01*
X133356728Y-90800091D02*
X133432918Y-90838186D01*
X133432918Y-90838186D02*
X133509109Y-90914376D01*
X133509109Y-90914376D02*
X133547204Y-91028662D01*
X133547204Y-91028662D02*
X133547204Y-91219138D01*
X133318632Y-90457234D02*
X133318632Y-90076281D01*
X133547204Y-90533424D02*
X132747204Y-90266757D01*
X132747204Y-90266757D02*
X133547204Y-90000091D01*
X139266895Y-92268020D02*
X140066895Y-92001353D01*
X140066895Y-92001353D02*
X139266895Y-91734687D01*
X140066895Y-91468020D02*
X139266895Y-91468020D01*
X140066895Y-91087068D02*
X139266895Y-91087068D01*
X139266895Y-91087068D02*
X140066895Y-90629925D01*
X140066895Y-90629925D02*
X139266895Y-90629925D01*
X140009109Y-89519139D02*
X140047204Y-89404853D01*
X140047204Y-89404853D02*
X140047204Y-89214377D01*
X140047204Y-89214377D02*
X140009109Y-89138186D01*
X140009109Y-89138186D02*
X139971013Y-89100091D01*
X139971013Y-89100091D02*
X139894823Y-89061996D01*
X139894823Y-89061996D02*
X139818632Y-89061996D01*
X139818632Y-89061996D02*
X139742442Y-89100091D01*
X139742442Y-89100091D02*
X139704347Y-89138186D01*
X139704347Y-89138186D02*
X139666251Y-89214377D01*
X139666251Y-89214377D02*
X139628156Y-89366758D01*
X139628156Y-89366758D02*
X139590061Y-89442948D01*
X139590061Y-89442948D02*
X139551966Y-89481043D01*
X139551966Y-89481043D02*
X139475775Y-89519139D01*
X139475775Y-89519139D02*
X139399585Y-89519139D01*
X139399585Y-89519139D02*
X139323394Y-89481043D01*
X139323394Y-89481043D02*
X139285299Y-89442948D01*
X139285299Y-89442948D02*
X139247204Y-89366758D01*
X139247204Y-89366758D02*
X139247204Y-89176281D01*
X139247204Y-89176281D02*
X139285299Y-89061996D01*
X140047204Y-88719138D02*
X139247204Y-88719138D01*
X139247204Y-88719138D02*
X139247204Y-88528662D01*
X139247204Y-88528662D02*
X139285299Y-88414376D01*
X139285299Y-88414376D02*
X139361489Y-88338186D01*
X139361489Y-88338186D02*
X139437680Y-88300091D01*
X139437680Y-88300091D02*
X139590061Y-88261995D01*
X139590061Y-88261995D02*
X139704347Y-88261995D01*
X139704347Y-88261995D02*
X139856728Y-88300091D01*
X139856728Y-88300091D02*
X139932918Y-88338186D01*
X139932918Y-88338186D02*
X140009109Y-88414376D01*
X140009109Y-88414376D02*
X140047204Y-88528662D01*
X140047204Y-88528662D02*
X140047204Y-88719138D01*
X139818632Y-87957234D02*
X139818632Y-87576281D01*
X140047204Y-88033424D02*
X139247204Y-87766757D01*
X139247204Y-87766757D02*
X140047204Y-87500091D01*
X139134990Y-86324687D02*
X139096895Y-86400877D01*
X139096895Y-86400877D02*
X139096895Y-86515163D01*
X139096895Y-86515163D02*
X139134990Y-86629449D01*
X139134990Y-86629449D02*
X139211180Y-86705639D01*
X139211180Y-86705639D02*
X139287371Y-86743734D01*
X139287371Y-86743734D02*
X139439752Y-86781830D01*
X139439752Y-86781830D02*
X139554038Y-86781830D01*
X139554038Y-86781830D02*
X139706419Y-86743734D01*
X139706419Y-86743734D02*
X139782609Y-86705639D01*
X139782609Y-86705639D02*
X139858800Y-86629449D01*
X139858800Y-86629449D02*
X139896895Y-86515163D01*
X139896895Y-86515163D02*
X139896895Y-86438972D01*
X139896895Y-86438972D02*
X139858800Y-86324687D01*
X139858800Y-86324687D02*
X139820704Y-86286591D01*
X139820704Y-86286591D02*
X139554038Y-86286591D01*
X139554038Y-86286591D02*
X139554038Y-86438972D01*
X139896895Y-85943734D02*
X139096895Y-85943734D01*
X139096895Y-85943734D02*
X139896895Y-85486591D01*
X139896895Y-85486591D02*
X139096895Y-85486591D01*
X139896895Y-85105639D02*
X139096895Y-85105639D01*
X139096895Y-85105639D02*
X139096895Y-84915163D01*
X139096895Y-84915163D02*
X139134990Y-84800877D01*
X139134990Y-84800877D02*
X139211180Y-84724687D01*
X139211180Y-84724687D02*
X139287371Y-84686592D01*
X139287371Y-84686592D02*
X139439752Y-84648496D01*
X139439752Y-84648496D02*
X139554038Y-84648496D01*
X139554038Y-84648496D02*
X139706419Y-84686592D01*
X139706419Y-84686592D02*
X139782609Y-84724687D01*
X139782609Y-84724687D02*
X139858800Y-84800877D01*
X139858800Y-84800877D02*
X139896895Y-84915163D01*
X139896895Y-84915163D02*
X139896895Y-85105639D01*
X139858800Y-83781830D02*
X139896895Y-83667544D01*
X139896895Y-83667544D02*
X139896895Y-83477068D01*
X139896895Y-83477068D02*
X139858800Y-83400877D01*
X139858800Y-83400877D02*
X139820704Y-83362782D01*
X139820704Y-83362782D02*
X139744514Y-83324687D01*
X139744514Y-83324687D02*
X139668323Y-83324687D01*
X139668323Y-83324687D02*
X139592133Y-83362782D01*
X139592133Y-83362782D02*
X139554038Y-83400877D01*
X139554038Y-83400877D02*
X139515942Y-83477068D01*
X139515942Y-83477068D02*
X139477847Y-83629449D01*
X139477847Y-83629449D02*
X139439752Y-83705639D01*
X139439752Y-83705639D02*
X139401657Y-83743734D01*
X139401657Y-83743734D02*
X139325466Y-83781830D01*
X139325466Y-83781830D02*
X139249276Y-83781830D01*
X139249276Y-83781830D02*
X139173085Y-83743734D01*
X139173085Y-83743734D02*
X139134990Y-83705639D01*
X139134990Y-83705639D02*
X139096895Y-83629449D01*
X139096895Y-83629449D02*
X139096895Y-83438972D01*
X139096895Y-83438972D02*
X139134990Y-83324687D01*
X139820704Y-82524686D02*
X139858800Y-82562782D01*
X139858800Y-82562782D02*
X139896895Y-82677067D01*
X139896895Y-82677067D02*
X139896895Y-82753258D01*
X139896895Y-82753258D02*
X139858800Y-82867544D01*
X139858800Y-82867544D02*
X139782609Y-82943734D01*
X139782609Y-82943734D02*
X139706419Y-82981829D01*
X139706419Y-82981829D02*
X139554038Y-83019925D01*
X139554038Y-83019925D02*
X139439752Y-83019925D01*
X139439752Y-83019925D02*
X139287371Y-82981829D01*
X139287371Y-82981829D02*
X139211180Y-82943734D01*
X139211180Y-82943734D02*
X139134990Y-82867544D01*
X139134990Y-82867544D02*
X139096895Y-82753258D01*
X139096895Y-82753258D02*
X139096895Y-82677067D01*
X139096895Y-82677067D02*
X139134990Y-82562782D01*
X139134990Y-82562782D02*
X139173085Y-82524686D01*
X139896895Y-81800877D02*
X139896895Y-82181829D01*
X139896895Y-82181829D02*
X139096895Y-82181829D01*
D11*
X130751064Y-68364216D02*
X131132017Y-68364216D01*
X130674874Y-68649931D02*
X130941541Y-67649931D01*
X130941541Y-67649931D02*
X131208207Y-68649931D01*
X131360588Y-67649931D02*
X131627255Y-68649931D01*
X131627255Y-68649931D02*
X131893921Y-67649931D01*
X132617731Y-68649931D02*
X132351064Y-68173740D01*
X132160588Y-68649931D02*
X132160588Y-67649931D01*
X132160588Y-67649931D02*
X132465350Y-67649931D01*
X132465350Y-67649931D02*
X132541540Y-67697550D01*
X132541540Y-67697550D02*
X132579635Y-67745169D01*
X132579635Y-67745169D02*
X132617731Y-67840407D01*
X132617731Y-67840407D02*
X132617731Y-67983264D01*
X132617731Y-67983264D02*
X132579635Y-68078502D01*
X132579635Y-68078502D02*
X132541540Y-68126121D01*
X132541540Y-68126121D02*
X132465350Y-68173740D01*
X132465350Y-68173740D02*
X132160588Y-68173740D01*
X133379635Y-68649931D02*
X132922492Y-68649931D01*
X133151064Y-68649931D02*
X133151064Y-67649931D01*
X133151064Y-67649931D02*
X133074873Y-67792788D01*
X133074873Y-67792788D02*
X132998683Y-67888026D01*
X132998683Y-67888026D02*
X132922492Y-67935645D01*
X134065350Y-67649931D02*
X133912969Y-67649931D01*
X133912969Y-67649931D02*
X133836778Y-67697550D01*
X133836778Y-67697550D02*
X133798683Y-67745169D01*
X133798683Y-67745169D02*
X133722493Y-67888026D01*
X133722493Y-67888026D02*
X133684397Y-68078502D01*
X133684397Y-68078502D02*
X133684397Y-68459454D01*
X133684397Y-68459454D02*
X133722493Y-68554692D01*
X133722493Y-68554692D02*
X133760588Y-68602312D01*
X133760588Y-68602312D02*
X133836778Y-68649931D01*
X133836778Y-68649931D02*
X133989159Y-68649931D01*
X133989159Y-68649931D02*
X134065350Y-68602312D01*
X134065350Y-68602312D02*
X134103445Y-68554692D01*
X134103445Y-68554692D02*
X134141540Y-68459454D01*
X134141540Y-68459454D02*
X134141540Y-68221359D01*
X134141540Y-68221359D02*
X134103445Y-68126121D01*
X134103445Y-68126121D02*
X134065350Y-68078502D01*
X134065350Y-68078502D02*
X133989159Y-68030883D01*
X133989159Y-68030883D02*
X133836778Y-68030883D01*
X133836778Y-68030883D02*
X133760588Y-68078502D01*
X133760588Y-68078502D02*
X133722493Y-68126121D01*
X133722493Y-68126121D02*
X133684397Y-68221359D01*
X134484398Y-68649931D02*
X134484398Y-67649931D01*
X134484398Y-67649931D02*
X134674874Y-67649931D01*
X134674874Y-67649931D02*
X134789160Y-67697550D01*
X134789160Y-67697550D02*
X134865350Y-67792788D01*
X134865350Y-67792788D02*
X134903445Y-67888026D01*
X134903445Y-67888026D02*
X134941541Y-68078502D01*
X134941541Y-68078502D02*
X134941541Y-68221359D01*
X134941541Y-68221359D02*
X134903445Y-68411835D01*
X134903445Y-68411835D02*
X134865350Y-68507073D01*
X134865350Y-68507073D02*
X134789160Y-68602312D01*
X134789160Y-68602312D02*
X134674874Y-68649931D01*
X134674874Y-68649931D02*
X134484398Y-68649931D01*
X135284398Y-68649931D02*
X135284398Y-67649931D01*
X135284398Y-67649931D02*
X135474874Y-67649931D01*
X135474874Y-67649931D02*
X135589160Y-67697550D01*
X135589160Y-67697550D02*
X135665350Y-67792788D01*
X135665350Y-67792788D02*
X135703445Y-67888026D01*
X135703445Y-67888026D02*
X135741541Y-68078502D01*
X135741541Y-68078502D02*
X135741541Y-68221359D01*
X135741541Y-68221359D02*
X135703445Y-68411835D01*
X135703445Y-68411835D02*
X135665350Y-68507073D01*
X135665350Y-68507073D02*
X135589160Y-68602312D01*
X135589160Y-68602312D02*
X135474874Y-68649931D01*
X135474874Y-68649931D02*
X135284398Y-68649931D01*
X136503445Y-68649931D02*
X136046302Y-68649931D01*
X136274874Y-68649931D02*
X136274874Y-67649931D01*
X136274874Y-67649931D02*
X136198683Y-67792788D01*
X136198683Y-67792788D02*
X136122493Y-67888026D01*
X136122493Y-67888026D02*
X136046302Y-67935645D01*
X137189160Y-67983264D02*
X137189160Y-68649931D01*
X136998684Y-67602312D02*
X136808207Y-68316597D01*
X136808207Y-68316597D02*
X137303446Y-68316597D01*
X138103446Y-67649931D02*
X138560589Y-67649931D01*
X138332017Y-68649931D02*
X138332017Y-67649931D01*
X138827256Y-68126121D02*
X139093922Y-68126121D01*
X139208208Y-68649931D02*
X138827256Y-68649931D01*
X138827256Y-68649931D02*
X138827256Y-67649931D01*
X138827256Y-67649931D02*
X139208208Y-67649931D01*
X139512970Y-68602312D02*
X139627256Y-68649931D01*
X139627256Y-68649931D02*
X139817732Y-68649931D01*
X139817732Y-68649931D02*
X139893923Y-68602312D01*
X139893923Y-68602312D02*
X139932018Y-68554692D01*
X139932018Y-68554692D02*
X139970113Y-68459454D01*
X139970113Y-68459454D02*
X139970113Y-68364216D01*
X139970113Y-68364216D02*
X139932018Y-68268978D01*
X139932018Y-68268978D02*
X139893923Y-68221359D01*
X139893923Y-68221359D02*
X139817732Y-68173740D01*
X139817732Y-68173740D02*
X139665351Y-68126121D01*
X139665351Y-68126121D02*
X139589161Y-68078502D01*
X139589161Y-68078502D02*
X139551066Y-68030883D01*
X139551066Y-68030883D02*
X139512970Y-67935645D01*
X139512970Y-67935645D02*
X139512970Y-67840407D01*
X139512970Y-67840407D02*
X139551066Y-67745169D01*
X139551066Y-67745169D02*
X139589161Y-67697550D01*
X139589161Y-67697550D02*
X139665351Y-67649931D01*
X139665351Y-67649931D02*
X139855828Y-67649931D01*
X139855828Y-67649931D02*
X139970113Y-67697550D01*
X140198685Y-67649931D02*
X140655828Y-67649931D01*
X140427256Y-68649931D02*
X140427256Y-67649931D01*
X141532019Y-68649931D02*
X141532019Y-67649931D01*
X141532019Y-67649931D02*
X141836781Y-67649931D01*
X141836781Y-67649931D02*
X141912971Y-67697550D01*
X141912971Y-67697550D02*
X141951066Y-67745169D01*
X141951066Y-67745169D02*
X141989162Y-67840407D01*
X141989162Y-67840407D02*
X141989162Y-67983264D01*
X141989162Y-67983264D02*
X141951066Y-68078502D01*
X141951066Y-68078502D02*
X141912971Y-68126121D01*
X141912971Y-68126121D02*
X141836781Y-68173740D01*
X141836781Y-68173740D02*
X141532019Y-68173740D01*
X142789162Y-68554692D02*
X142751066Y-68602312D01*
X142751066Y-68602312D02*
X142636781Y-68649931D01*
X142636781Y-68649931D02*
X142560590Y-68649931D01*
X142560590Y-68649931D02*
X142446304Y-68602312D01*
X142446304Y-68602312D02*
X142370114Y-68507073D01*
X142370114Y-68507073D02*
X142332019Y-68411835D01*
X142332019Y-68411835D02*
X142293923Y-68221359D01*
X142293923Y-68221359D02*
X142293923Y-68078502D01*
X142293923Y-68078502D02*
X142332019Y-67888026D01*
X142332019Y-67888026D02*
X142370114Y-67792788D01*
X142370114Y-67792788D02*
X142446304Y-67697550D01*
X142446304Y-67697550D02*
X142560590Y-67649931D01*
X142560590Y-67649931D02*
X142636781Y-67649931D01*
X142636781Y-67649931D02*
X142751066Y-67697550D01*
X142751066Y-67697550D02*
X142789162Y-67745169D01*
X143398685Y-68126121D02*
X143512971Y-68173740D01*
X143512971Y-68173740D02*
X143551066Y-68221359D01*
X143551066Y-68221359D02*
X143589162Y-68316597D01*
X143589162Y-68316597D02*
X143589162Y-68459454D01*
X143589162Y-68459454D02*
X143551066Y-68554692D01*
X143551066Y-68554692D02*
X143512971Y-68602312D01*
X143512971Y-68602312D02*
X143436781Y-68649931D01*
X143436781Y-68649931D02*
X143132019Y-68649931D01*
X143132019Y-68649931D02*
X143132019Y-67649931D01*
X143132019Y-67649931D02*
X143398685Y-67649931D01*
X143398685Y-67649931D02*
X143474876Y-67697550D01*
X143474876Y-67697550D02*
X143512971Y-67745169D01*
X143512971Y-67745169D02*
X143551066Y-67840407D01*
X143551066Y-67840407D02*
X143551066Y-67935645D01*
X143551066Y-67935645D02*
X143512971Y-68030883D01*
X143512971Y-68030883D02*
X143474876Y-68078502D01*
X143474876Y-68078502D02*
X143398685Y-68126121D01*
X143398685Y-68126121D02*
X143132019Y-68126121D01*
X130674874Y-69259875D02*
X130941541Y-70259875D01*
X130941541Y-70259875D02*
X131208207Y-69259875D01*
X131627255Y-69259875D02*
X131703445Y-69259875D01*
X131703445Y-69259875D02*
X131779636Y-69307494D01*
X131779636Y-69307494D02*
X131817731Y-69355113D01*
X131817731Y-69355113D02*
X131855826Y-69450351D01*
X131855826Y-69450351D02*
X131893921Y-69640827D01*
X131893921Y-69640827D02*
X131893921Y-69878922D01*
X131893921Y-69878922D02*
X131855826Y-70069398D01*
X131855826Y-70069398D02*
X131817731Y-70164636D01*
X131817731Y-70164636D02*
X131779636Y-70212256D01*
X131779636Y-70212256D02*
X131703445Y-70259875D01*
X131703445Y-70259875D02*
X131627255Y-70259875D01*
X131627255Y-70259875D02*
X131551064Y-70212256D01*
X131551064Y-70212256D02*
X131512969Y-70164636D01*
X131512969Y-70164636D02*
X131474874Y-70069398D01*
X131474874Y-70069398D02*
X131436778Y-69878922D01*
X131436778Y-69878922D02*
X131436778Y-69640827D01*
X131436778Y-69640827D02*
X131474874Y-69450351D01*
X131474874Y-69450351D02*
X131512969Y-69355113D01*
X131512969Y-69355113D02*
X131551064Y-69307494D01*
X131551064Y-69307494D02*
X131627255Y-69259875D01*
X132236779Y-70164636D02*
X132274874Y-70212256D01*
X132274874Y-70212256D02*
X132236779Y-70259875D01*
X132236779Y-70259875D02*
X132198683Y-70212256D01*
X132198683Y-70212256D02*
X132236779Y-70164636D01*
X132236779Y-70164636D02*
X132236779Y-70259875D01*
X132770112Y-69259875D02*
X132846302Y-69259875D01*
X132846302Y-69259875D02*
X132922493Y-69307494D01*
X132922493Y-69307494D02*
X132960588Y-69355113D01*
X132960588Y-69355113D02*
X132998683Y-69450351D01*
X132998683Y-69450351D02*
X133036778Y-69640827D01*
X133036778Y-69640827D02*
X133036778Y-69878922D01*
X133036778Y-69878922D02*
X132998683Y-70069398D01*
X132998683Y-70069398D02*
X132960588Y-70164636D01*
X132960588Y-70164636D02*
X132922493Y-70212256D01*
X132922493Y-70212256D02*
X132846302Y-70259875D01*
X132846302Y-70259875D02*
X132770112Y-70259875D01*
X132770112Y-70259875D02*
X132693921Y-70212256D01*
X132693921Y-70212256D02*
X132655826Y-70164636D01*
X132655826Y-70164636D02*
X132617731Y-70069398D01*
X132617731Y-70069398D02*
X132579635Y-69878922D01*
X132579635Y-69878922D02*
X132579635Y-69640827D01*
X132579635Y-69640827D02*
X132617731Y-69450351D01*
X132617731Y-69450351D02*
X132655826Y-69355113D01*
X132655826Y-69355113D02*
X132693921Y-69307494D01*
X132693921Y-69307494D02*
X132770112Y-69259875D01*
D12*
%TO.C,J1*%
X109770000Y-84890000D02*
X108500000Y-84890000D01*
X109770000Y-83620000D02*
X109770000Y-84890000D01*
D13*
%TO.C,IC2*%
X133425000Y-73000000D02*
X134575000Y-73000000D01*
X134925000Y-73025000D02*
X135575000Y-73025000D01*
X134925000Y-75975000D02*
X134925000Y-73025000D01*
X135575000Y-73025000D02*
X135575000Y-75975000D01*
X135575000Y-75975000D02*
X134925000Y-75975000D01*
%TO.C,IC1*%
X117705000Y-86150000D02*
X117705000Y-84650000D01*
X117865000Y-84300000D02*
X117865000Y-81100000D01*
X126515000Y-84300000D02*
X117865000Y-84300000D01*
X117865000Y-81100000D02*
X126515000Y-81100000D01*
X126515000Y-81100000D02*
X126515000Y-84300000D01*
D12*
%TO.C,D2*%
X123460000Y-78122500D02*
X123460000Y-75437500D01*
X121540000Y-78122500D02*
X123460000Y-78122500D01*
X121540000Y-75437500D02*
X121540000Y-78122500D01*
%TO.C,J6*%
X116420000Y-92830000D02*
X115090000Y-92830000D01*
X117690000Y-92830000D02*
X117690000Y-90170000D01*
X127910000Y-92830000D02*
X127910000Y-90170000D01*
X117690000Y-92830000D02*
X127910000Y-92830000D01*
X115090000Y-92830000D02*
X115090000Y-91500000D01*
X117690000Y-90170000D02*
X127910000Y-90170000D01*
%TO.C,J5*%
X129170000Y-79270000D02*
X129170000Y-86950000D01*
X129170000Y-76670000D02*
X130500000Y-76670000D01*
X129170000Y-79270000D02*
X131830000Y-79270000D01*
X129170000Y-86950000D02*
X131830000Y-86950000D01*
X129170000Y-78000000D02*
X129170000Y-76670000D01*
X131830000Y-79270000D02*
X131830000Y-86950000D01*
%TO.C,R5*%
X120735000Y-76185436D02*
X120735000Y-76639564D01*
X119265000Y-76185436D02*
X119265000Y-76639564D01*
%TO.C,R4*%
X138314564Y-78785000D02*
X137860436Y-78785000D01*
X138314564Y-77315000D02*
X137860436Y-77315000D01*
%TO.C,R3*%
X135765000Y-81364564D02*
X135765000Y-80910436D01*
X137235000Y-81364564D02*
X137235000Y-80910436D01*
%TO.C,R2*%
X133765000Y-81364564D02*
X133765000Y-80910436D01*
X135235000Y-81364564D02*
X135235000Y-80910436D01*
%TO.C,J4*%
X133670000Y-86770000D02*
X133670000Y-94450000D01*
X133670000Y-84170000D02*
X135000000Y-84170000D01*
X133670000Y-86770000D02*
X136330000Y-86770000D01*
X133670000Y-94450000D02*
X136330000Y-94450000D01*
X133670000Y-85500000D02*
X133670000Y-84170000D01*
X136330000Y-86770000D02*
X136330000Y-94450000D01*
%TO.C,J2*%
X142830000Y-84730000D02*
X142830000Y-92410000D01*
X140170000Y-83460000D02*
X140170000Y-82130000D01*
X140170000Y-92410000D02*
X142830000Y-92410000D01*
X140170000Y-84730000D02*
X142830000Y-84730000D01*
X140170000Y-82130000D02*
X141500000Y-82130000D01*
X140170000Y-84730000D02*
X140170000Y-92410000D01*
%TO.C,D1*%
X142460000Y-80622500D02*
X142460000Y-77937500D01*
X140540000Y-80622500D02*
X142460000Y-80622500D01*
X140540000Y-77937500D02*
X140540000Y-80622500D01*
%TO.C,C2*%
X139765000Y-74761252D02*
X139765000Y-74238748D01*
X141235000Y-74761252D02*
X141235000Y-74238748D01*
%TO.C,C1*%
X117261252Y-76315000D02*
X116738748Y-76315000D01*
X117261252Y-77785000D02*
X116738748Y-77785000D01*
%TO.C,D3*%
X111880000Y-81380000D02*
X111880000Y-85620000D01*
X111880000Y-84900000D02*
X114120000Y-84900000D01*
X111880000Y-85020000D02*
X114120000Y-85020000D01*
X114120000Y-81380000D02*
X111880000Y-81380000D01*
X111880000Y-84780000D02*
X114120000Y-84780000D01*
X113000000Y-86270000D02*
X113000000Y-85620000D01*
X111880000Y-85620000D02*
X114120000Y-85620000D01*
X114120000Y-85620000D02*
X114120000Y-81380000D01*
X113000000Y-80730000D02*
X113000000Y-81380000D01*
%TD*%
M02*
