%TF.GenerationSoftware,KiCad,Pcbnew,8.0.0-8.0.0-1~ubuntu20.04.1*%
%TF.CreationDate,2024-03-10T03:56:21-05:00*%
%TF.ProjectId,avr16dd14_dev_board,61767231-3664-4643-9134-5f6465765f62,rev?*%
%TF.SameCoordinates,Original*%
%TF.FileFunction,Copper,L2,Bot*%
%TF.FilePolarity,Positive*%
%FSLAX46Y46*%
G04 Gerber Fmt 4.6, Leading zero omitted, Abs format (unit mm)*
G04 Created by KiCad (PCBNEW 8.0.0-8.0.0-1~ubuntu20.04.1) date 2024-03-10 03:56:21*
%MOMM*%
%LPD*%
G01*
G04 APERTURE LIST*
%TA.AperFunction,ComponentPad*%
%ADD10R,1.700000X1.700000*%
%TD*%
%TA.AperFunction,ComponentPad*%
%ADD11O,1.700000X1.700000*%
%TD*%
%TA.AperFunction,ComponentPad*%
%ADD12R,1.600000X1.600000*%
%TD*%
%TA.AperFunction,ComponentPad*%
%ADD13O,1.600000X1.600000*%
%TD*%
%TA.AperFunction,ViaPad*%
%ADD14C,0.584200*%
%TD*%
%TA.AperFunction,Conductor*%
%ADD15C,0.152400*%
%TD*%
%TA.AperFunction,Conductor*%
%ADD16C,0.250000*%
%TD*%
G04 APERTURE END LIST*
D10*
%TO.P,J1,1,Pin_1*%
%TO.N,0*%
X108500000Y-83620000D03*
D11*
%TO.P,J1,2,Pin_2*%
%TO.N,unconnected-(J1-Pin_2-Pad2)*%
X108500000Y-81080000D03*
%TO.P,J1,3,Pin_3*%
%TO.N,/VIN*%
X108500000Y-78540000D03*
%TO.P,J1,4,Pin_4*%
%TO.N,/TX*%
X108500000Y-76000000D03*
%TO.P,J1,5,Pin_5*%
%TO.N,/RX*%
X108500000Y-73460000D03*
%TO.P,J1,6,Pin_6*%
%TO.N,unconnected-(J1-Pin_6-Pad6)*%
X108500000Y-70920000D03*
%TD*%
%TO.P,J6,5,Pin_5*%
%TO.N,/PD4*%
X126580000Y-91500000D03*
%TO.P,J6,4,Pin_4*%
%TO.N,/PC3*%
X124040000Y-91500000D03*
%TO.P,J6,3,Pin_3*%
%TO.N,/PC2*%
X121500000Y-91500000D03*
%TO.P,J6,2,Pin_2*%
%TO.N,/PC1*%
X118960000Y-91500000D03*
D10*
%TO.P,J6,1,Pin_1*%
%TO.N,/RESET*%
X116420000Y-91500000D03*
%TD*%
D11*
%TO.P,J5,4,Pin_4*%
%TO.N,/VDDIO2*%
X130500000Y-85620000D03*
%TO.P,J5,3,Pin_3*%
%TO.N,/PD7*%
X130500000Y-83080000D03*
%TO.P,J5,2,Pin_2*%
%TO.N,/PD6*%
X130500000Y-80540000D03*
D10*
%TO.P,J5,1,Pin_1*%
%TO.N,/PD5*%
X130500000Y-78000000D03*
%TD*%
D11*
%TO.P,J4,4,Pin_4*%
%TO.N,/VIN*%
X135000000Y-93120000D03*
%TO.P,J4,3,Pin_3*%
%TO.N,/SDA*%
X135000000Y-90580000D03*
%TO.P,J4,2,Pin_2*%
%TO.N,0*%
X135000000Y-88040000D03*
D10*
%TO.P,J4,1,Pin_1*%
%TO.N,/SCL*%
X135000000Y-85500000D03*
%TD*%
%TO.P,J2,1,Pin_1*%
%TO.N,/SCL*%
X141500000Y-83460000D03*
D11*
%TO.P,J2,2,Pin_2*%
%TO.N,0*%
X141500000Y-86000000D03*
%TO.P,J2,3,Pin_3*%
%TO.N,/SDA*%
X141500000Y-88540000D03*
%TO.P,J2,4,Pin_4*%
%TO.N,/VIN*%
X141500000Y-91080000D03*
%TD*%
D12*
%TO.P,D3,1,K*%
%TO.N,/TX*%
X113000000Y-87310000D03*
D13*
%TO.P,D3,2,A*%
%TO.N,/RX*%
X113000000Y-79690000D03*
%TD*%
D14*
%TO.N,0*%
X132500000Y-74500000D03*
%TO.N,/PD4*%
X127500000Y-79500000D03*
%TO.N,/PC3*%
X126000000Y-81500000D03*
%TO.N,/SCL*%
X137500000Y-83000000D03*
%TO.N,0*%
X140000000Y-85500000D03*
X142000000Y-76500000D03*
X141500000Y-81000000D03*
X108500000Y-86000000D03*
X117000000Y-85500000D03*
X117500000Y-75500000D03*
X126500000Y-77068300D03*
%TD*%
D15*
%TO.N,/PD4*%
X127500000Y-79500000D02*
X127500000Y-89000000D01*
X127500000Y-89000000D02*
X126580000Y-89920000D01*
X126580000Y-89920000D02*
X126580000Y-91500000D01*
%TO.N,/PC3*%
X124040000Y-91500000D02*
X126000000Y-89540000D01*
X126000000Y-89540000D02*
X126000000Y-81500000D01*
D16*
%TO.N,/SCL*%
X137500000Y-83000000D02*
X138500000Y-82000000D01*
D15*
X138500000Y-82000000D02*
X140040000Y-82000000D01*
X140040000Y-82000000D02*
X141500000Y-83460000D01*
%TD*%
%TA.AperFunction,Conductor*%
%TO.N,0*%
G36*
X144443039Y-66519685D02*
G01*
X144488794Y-66572489D01*
X144500000Y-66624000D01*
X144500000Y-94876000D01*
X144480315Y-94943039D01*
X144427511Y-94988794D01*
X144376000Y-95000000D01*
X105124000Y-95000000D01*
X105056961Y-94980315D01*
X105011206Y-94927511D01*
X105000000Y-94876000D01*
X105000000Y-93120000D01*
X133644341Y-93120000D01*
X133664936Y-93355403D01*
X133664938Y-93355413D01*
X133726094Y-93583655D01*
X133726096Y-93583659D01*
X133726097Y-93583663D01*
X133825965Y-93797830D01*
X133825967Y-93797834D01*
X133934281Y-93952521D01*
X133961505Y-93991401D01*
X134128599Y-94158495D01*
X134225384Y-94226265D01*
X134322165Y-94294032D01*
X134322167Y-94294033D01*
X134322170Y-94294035D01*
X134536337Y-94393903D01*
X134764592Y-94455063D01*
X134952918Y-94471539D01*
X134999999Y-94475659D01*
X135000000Y-94475659D01*
X135000001Y-94475659D01*
X135039234Y-94472226D01*
X135235408Y-94455063D01*
X135463663Y-94393903D01*
X135677830Y-94294035D01*
X135871401Y-94158495D01*
X136038495Y-93991401D01*
X136174035Y-93797830D01*
X136273903Y-93583663D01*
X136335063Y-93355408D01*
X136355659Y-93120000D01*
X136335063Y-92884592D01*
X136273903Y-92656337D01*
X136174035Y-92442171D01*
X136169476Y-92435659D01*
X136038494Y-92248597D01*
X135871402Y-92081506D01*
X135871396Y-92081501D01*
X135685842Y-91951575D01*
X135642217Y-91896998D01*
X135635023Y-91827500D01*
X135666546Y-91765145D01*
X135685842Y-91748425D01*
X135708026Y-91732891D01*
X135871401Y-91618495D01*
X136038495Y-91451401D01*
X136174035Y-91257830D01*
X136273903Y-91043663D01*
X136335063Y-90815408D01*
X136355659Y-90580000D01*
X136335063Y-90344592D01*
X136273903Y-90116337D01*
X136174035Y-89902171D01*
X136168913Y-89894855D01*
X136038494Y-89708597D01*
X135871402Y-89541506D01*
X135871401Y-89541505D01*
X135685595Y-89411402D01*
X135685405Y-89411269D01*
X135641781Y-89356692D01*
X135634588Y-89287193D01*
X135666110Y-89224839D01*
X135685405Y-89208119D01*
X135871082Y-89078105D01*
X136038105Y-88911082D01*
X136173600Y-88717578D01*
X136273429Y-88503492D01*
X136273432Y-88503486D01*
X136330636Y-88290000D01*
X135433012Y-88290000D01*
X135465925Y-88232993D01*
X135500000Y-88105826D01*
X135500000Y-87974174D01*
X135465925Y-87847007D01*
X135433012Y-87790000D01*
X136330636Y-87790000D01*
X136330635Y-87789999D01*
X136273432Y-87576513D01*
X136273429Y-87576507D01*
X136173600Y-87362422D01*
X136173599Y-87362420D01*
X136038113Y-87168926D01*
X136038108Y-87168920D01*
X135916053Y-87046865D01*
X135882568Y-86985542D01*
X135887552Y-86915850D01*
X135929424Y-86859917D01*
X135960400Y-86843002D01*
X136049847Y-86809641D01*
X136092326Y-86793798D01*
X136092326Y-86793797D01*
X136092331Y-86793796D01*
X136207546Y-86707546D01*
X136293796Y-86592331D01*
X136344091Y-86457483D01*
X136350500Y-86397873D01*
X136350499Y-84602128D01*
X136344091Y-84542517D01*
X136334882Y-84517827D01*
X136293797Y-84407671D01*
X136293793Y-84407664D01*
X136207547Y-84292455D01*
X136207544Y-84292452D01*
X136092335Y-84206206D01*
X136092328Y-84206202D01*
X135957482Y-84155908D01*
X135957483Y-84155908D01*
X135897883Y-84149501D01*
X135897881Y-84149500D01*
X135897873Y-84149500D01*
X135897864Y-84149500D01*
X134102129Y-84149500D01*
X134102123Y-84149501D01*
X134042516Y-84155908D01*
X133907671Y-84206202D01*
X133907664Y-84206206D01*
X133792455Y-84292452D01*
X133792452Y-84292455D01*
X133706206Y-84407664D01*
X133706202Y-84407671D01*
X133655908Y-84542517D01*
X133651717Y-84581505D01*
X133649501Y-84602123D01*
X133649500Y-84602135D01*
X133649500Y-86397870D01*
X133649501Y-86397876D01*
X133655908Y-86457483D01*
X133706202Y-86592328D01*
X133706206Y-86592335D01*
X133792452Y-86707544D01*
X133792455Y-86707547D01*
X133907664Y-86793793D01*
X133907671Y-86793797D01*
X133969902Y-86817007D01*
X134039598Y-86843002D01*
X134095531Y-86884873D01*
X134119949Y-86950337D01*
X134105098Y-87018610D01*
X134083947Y-87046865D01*
X133961886Y-87168926D01*
X133826400Y-87362420D01*
X133826399Y-87362422D01*
X133726570Y-87576507D01*
X133726567Y-87576513D01*
X133669364Y-87789999D01*
X133669364Y-87790000D01*
X134566988Y-87790000D01*
X134534075Y-87847007D01*
X134500000Y-87974174D01*
X134500000Y-88105826D01*
X134534075Y-88232993D01*
X134566988Y-88290000D01*
X133669364Y-88290000D01*
X133726567Y-88503486D01*
X133726570Y-88503492D01*
X133826399Y-88717578D01*
X133961894Y-88911082D01*
X134128917Y-89078105D01*
X134314595Y-89208119D01*
X134358219Y-89262696D01*
X134365412Y-89332195D01*
X134333890Y-89394549D01*
X134314595Y-89411269D01*
X134128594Y-89541508D01*
X133961505Y-89708597D01*
X133825965Y-89902169D01*
X133825964Y-89902171D01*
X133726098Y-90116335D01*
X133726094Y-90116344D01*
X133664938Y-90344586D01*
X133664936Y-90344596D01*
X133644341Y-90579999D01*
X133644341Y-90580000D01*
X133664936Y-90815403D01*
X133664938Y-90815413D01*
X133726094Y-91043655D01*
X133726096Y-91043659D01*
X133726097Y-91043663D01*
X133825965Y-91257830D01*
X133825967Y-91257834D01*
X133961501Y-91451395D01*
X133961506Y-91451402D01*
X134128597Y-91618493D01*
X134128603Y-91618498D01*
X134314158Y-91748425D01*
X134357783Y-91803002D01*
X134364977Y-91872500D01*
X134333454Y-91934855D01*
X134314158Y-91951575D01*
X134128597Y-92081505D01*
X133961505Y-92248597D01*
X133825965Y-92442169D01*
X133825964Y-92442171D01*
X133726098Y-92656335D01*
X133726094Y-92656344D01*
X133664938Y-92884586D01*
X133664936Y-92884596D01*
X133644341Y-93119999D01*
X133644341Y-93120000D01*
X105000000Y-93120000D01*
X105000000Y-92397870D01*
X115069500Y-92397870D01*
X115069501Y-92397876D01*
X115075908Y-92457483D01*
X115126202Y-92592328D01*
X115126206Y-92592335D01*
X115212452Y-92707544D01*
X115212455Y-92707547D01*
X115327664Y-92793793D01*
X115327671Y-92793797D01*
X115462517Y-92844091D01*
X115462516Y-92844091D01*
X115469444Y-92844835D01*
X115522127Y-92850500D01*
X117317872Y-92850499D01*
X117377483Y-92844091D01*
X117512331Y-92793796D01*
X117627546Y-92707546D01*
X117713796Y-92592331D01*
X117762810Y-92460916D01*
X117804681Y-92404984D01*
X117870145Y-92380566D01*
X117938418Y-92395417D01*
X117966673Y-92416569D01*
X118088599Y-92538495D01*
X118185384Y-92606265D01*
X118282165Y-92674032D01*
X118282167Y-92674033D01*
X118282170Y-92674035D01*
X118496337Y-92773903D01*
X118724592Y-92835063D01*
X118901034Y-92850500D01*
X118959999Y-92855659D01*
X118960000Y-92855659D01*
X118960001Y-92855659D01*
X119018966Y-92850500D01*
X119195408Y-92835063D01*
X119423663Y-92773903D01*
X119637830Y-92674035D01*
X119831401Y-92538495D01*
X119998495Y-92371401D01*
X120128425Y-92185842D01*
X120183002Y-92142217D01*
X120252500Y-92135023D01*
X120314855Y-92166546D01*
X120331575Y-92185842D01*
X120461500Y-92371395D01*
X120461505Y-92371401D01*
X120628599Y-92538495D01*
X120725384Y-92606265D01*
X120822165Y-92674032D01*
X120822167Y-92674033D01*
X120822170Y-92674035D01*
X121036337Y-92773903D01*
X121264592Y-92835063D01*
X121441034Y-92850500D01*
X121499999Y-92855659D01*
X121500000Y-92855659D01*
X121500001Y-92855659D01*
X121558966Y-92850500D01*
X121735408Y-92835063D01*
X121963663Y-92773903D01*
X122177830Y-92674035D01*
X122371401Y-92538495D01*
X122538495Y-92371401D01*
X122668425Y-92185842D01*
X122723002Y-92142217D01*
X122792500Y-92135023D01*
X122854855Y-92166546D01*
X122871575Y-92185842D01*
X123001500Y-92371395D01*
X123001505Y-92371401D01*
X123168599Y-92538495D01*
X123265384Y-92606265D01*
X123362165Y-92674032D01*
X123362167Y-92674033D01*
X123362170Y-92674035D01*
X123576337Y-92773903D01*
X123804592Y-92835063D01*
X123981034Y-92850500D01*
X124039999Y-92855659D01*
X124040000Y-92855659D01*
X124040001Y-92855659D01*
X124098966Y-92850500D01*
X124275408Y-92835063D01*
X124503663Y-92773903D01*
X124717830Y-92674035D01*
X124911401Y-92538495D01*
X125078495Y-92371401D01*
X125208425Y-92185842D01*
X125263002Y-92142217D01*
X125332500Y-92135023D01*
X125394855Y-92166546D01*
X125411575Y-92185842D01*
X125541500Y-92371395D01*
X125541505Y-92371401D01*
X125708599Y-92538495D01*
X125805384Y-92606265D01*
X125902165Y-92674032D01*
X125902167Y-92674033D01*
X125902170Y-92674035D01*
X126116337Y-92773903D01*
X126344592Y-92835063D01*
X126521034Y-92850500D01*
X126579999Y-92855659D01*
X126580000Y-92855659D01*
X126580001Y-92855659D01*
X126638966Y-92850500D01*
X126815408Y-92835063D01*
X127043663Y-92773903D01*
X127257830Y-92674035D01*
X127451401Y-92538495D01*
X127618495Y-92371401D01*
X127754035Y-92177830D01*
X127853903Y-91963663D01*
X127915063Y-91735408D01*
X127935659Y-91500000D01*
X127915063Y-91264592D01*
X127853903Y-91036337D01*
X127754035Y-90822171D01*
X127748425Y-90814158D01*
X127618494Y-90628597D01*
X127451402Y-90461506D01*
X127451395Y-90461501D01*
X127257831Y-90325965D01*
X127257827Y-90325963D01*
X127235405Y-90315507D01*
X127182966Y-90269333D01*
X127163816Y-90202139D01*
X127184033Y-90135259D01*
X127200126Y-90115450D01*
X127961475Y-89354102D01*
X128037399Y-89222598D01*
X128076700Y-89075925D01*
X128076700Y-88924076D01*
X128076700Y-85620000D01*
X129144341Y-85620000D01*
X129164936Y-85855403D01*
X129164938Y-85855413D01*
X129226094Y-86083655D01*
X129226096Y-86083659D01*
X129226097Y-86083663D01*
X129311898Y-86267664D01*
X129325965Y-86297830D01*
X129325967Y-86297834D01*
X129434281Y-86452521D01*
X129461505Y-86491401D01*
X129628599Y-86658495D01*
X129725384Y-86726265D01*
X129822165Y-86794032D01*
X129822167Y-86794033D01*
X129822170Y-86794035D01*
X130036337Y-86893903D01*
X130264592Y-86955063D01*
X130452918Y-86971539D01*
X130499999Y-86975659D01*
X130500000Y-86975659D01*
X130500001Y-86975659D01*
X130539234Y-86972226D01*
X130735408Y-86955063D01*
X130963663Y-86893903D01*
X131177830Y-86794035D01*
X131371401Y-86658495D01*
X131538495Y-86491401D01*
X131674035Y-86297830D01*
X131773903Y-86083663D01*
X131835063Y-85855408D01*
X131855659Y-85620000D01*
X131835063Y-85384592D01*
X131773903Y-85156337D01*
X131674035Y-84942171D01*
X131653858Y-84913354D01*
X131538494Y-84748597D01*
X131371402Y-84581506D01*
X131371396Y-84581501D01*
X131185842Y-84451575D01*
X131142217Y-84396998D01*
X131135023Y-84327500D01*
X131166546Y-84265145D01*
X131185842Y-84248425D01*
X131246140Y-84206204D01*
X131371401Y-84118495D01*
X131538495Y-83951401D01*
X131674035Y-83757830D01*
X131773903Y-83543663D01*
X131835063Y-83315408D01*
X131855659Y-83080000D01*
X131848660Y-83000003D01*
X136702385Y-83000003D01*
X136722381Y-83177479D01*
X136722382Y-83177484D01*
X136722383Y-83177486D01*
X136737225Y-83219901D01*
X136781373Y-83346071D01*
X136832228Y-83427007D01*
X136876399Y-83497305D01*
X137002695Y-83623601D01*
X137153928Y-83718626D01*
X137322514Y-83777617D01*
X137322518Y-83777617D01*
X137322520Y-83777618D01*
X137499996Y-83797615D01*
X137500000Y-83797615D01*
X137500004Y-83797615D01*
X137677479Y-83777618D01*
X137677479Y-83777617D01*
X137677486Y-83777617D01*
X137846072Y-83718626D01*
X137997305Y-83623601D01*
X138123601Y-83497305D01*
X138218626Y-83346072D01*
X138246392Y-83266719D01*
X138277615Y-83177493D01*
X138277615Y-83177490D01*
X138277617Y-83177486D01*
X138281712Y-83141135D01*
X138308776Y-83076724D01*
X138317231Y-83067357D01*
X138771573Y-82613016D01*
X138832895Y-82579534D01*
X138859253Y-82576700D01*
X139749761Y-82576700D01*
X139816800Y-82596385D01*
X139837442Y-82613019D01*
X140113181Y-82888758D01*
X140146666Y-82950081D01*
X140149500Y-82976439D01*
X140149500Y-84357870D01*
X140149501Y-84357876D01*
X140155908Y-84417483D01*
X140206202Y-84552328D01*
X140206206Y-84552335D01*
X140292452Y-84667544D01*
X140292455Y-84667547D01*
X140407664Y-84753793D01*
X140407671Y-84753797D01*
X140407674Y-84753798D01*
X140539598Y-84803002D01*
X140595531Y-84844873D01*
X140619949Y-84910337D01*
X140605098Y-84978610D01*
X140583947Y-85006865D01*
X140461886Y-85128926D01*
X140326400Y-85322420D01*
X140326399Y-85322422D01*
X140226570Y-85536507D01*
X140226567Y-85536513D01*
X140169364Y-85749999D01*
X140169364Y-85750000D01*
X141066988Y-85750000D01*
X141034075Y-85807007D01*
X141000000Y-85934174D01*
X141000000Y-86065826D01*
X141034075Y-86192993D01*
X141066988Y-86250000D01*
X140169364Y-86250000D01*
X140226567Y-86463486D01*
X140226570Y-86463492D01*
X140326399Y-86677578D01*
X140461894Y-86871082D01*
X140628917Y-87038105D01*
X140814595Y-87168119D01*
X140858219Y-87222696D01*
X140865412Y-87292195D01*
X140833890Y-87354549D01*
X140814595Y-87371269D01*
X140628594Y-87501508D01*
X140461505Y-87668597D01*
X140325965Y-87862169D01*
X140325964Y-87862171D01*
X140226098Y-88076335D01*
X140226094Y-88076344D01*
X140164938Y-88304586D01*
X140164936Y-88304596D01*
X140144341Y-88539999D01*
X140144341Y-88540000D01*
X140164936Y-88775403D01*
X140164938Y-88775413D01*
X140226094Y-89003655D01*
X140226096Y-89003659D01*
X140226097Y-89003663D01*
X140260810Y-89078105D01*
X140325965Y-89217830D01*
X140325967Y-89217834D01*
X140461501Y-89411395D01*
X140461506Y-89411402D01*
X140628597Y-89578493D01*
X140628603Y-89578498D01*
X140814158Y-89708425D01*
X140857783Y-89763002D01*
X140864977Y-89832500D01*
X140833454Y-89894855D01*
X140814158Y-89911575D01*
X140628597Y-90041505D01*
X140461505Y-90208597D01*
X140325965Y-90402169D01*
X140325964Y-90402171D01*
X140226098Y-90616335D01*
X140226094Y-90616344D01*
X140164938Y-90844586D01*
X140164936Y-90844596D01*
X140144341Y-91079999D01*
X140144341Y-91080000D01*
X140164936Y-91315403D01*
X140164938Y-91315413D01*
X140226094Y-91543655D01*
X140226096Y-91543659D01*
X140226097Y-91543663D01*
X140315507Y-91735403D01*
X140325965Y-91757830D01*
X140325967Y-91757834D01*
X140434281Y-91912521D01*
X140461505Y-91951401D01*
X140628599Y-92118495D01*
X140697223Y-92166546D01*
X140822165Y-92254032D01*
X140822167Y-92254033D01*
X140822170Y-92254035D01*
X141036337Y-92353903D01*
X141264592Y-92415063D01*
X141452918Y-92431539D01*
X141499999Y-92435659D01*
X141500000Y-92435659D01*
X141500001Y-92435659D01*
X141539234Y-92432226D01*
X141735408Y-92415063D01*
X141963663Y-92353903D01*
X142177830Y-92254035D01*
X142371401Y-92118495D01*
X142538495Y-91951401D01*
X142674035Y-91757830D01*
X142773903Y-91543663D01*
X142835063Y-91315408D01*
X142855659Y-91080000D01*
X142835063Y-90844592D01*
X142773903Y-90616337D01*
X142674035Y-90402171D01*
X142620676Y-90325965D01*
X142538494Y-90208597D01*
X142371402Y-90041506D01*
X142371396Y-90041501D01*
X142185842Y-89911575D01*
X142142217Y-89856998D01*
X142135023Y-89787500D01*
X142166546Y-89725145D01*
X142185842Y-89708425D01*
X142208026Y-89692891D01*
X142371401Y-89578495D01*
X142538495Y-89411401D01*
X142674035Y-89217830D01*
X142773903Y-89003663D01*
X142835063Y-88775408D01*
X142855659Y-88540000D01*
X142835063Y-88304592D01*
X142788626Y-88131285D01*
X142773905Y-88076344D01*
X142773904Y-88076343D01*
X142773903Y-88076337D01*
X142674035Y-87862171D01*
X142538495Y-87668599D01*
X142538494Y-87668597D01*
X142371402Y-87501506D01*
X142371401Y-87501505D01*
X142185405Y-87371269D01*
X142141781Y-87316692D01*
X142134588Y-87247193D01*
X142166110Y-87184839D01*
X142185405Y-87168119D01*
X142371082Y-87038105D01*
X142538105Y-86871082D01*
X142673600Y-86677578D01*
X142773429Y-86463492D01*
X142773432Y-86463486D01*
X142830636Y-86250000D01*
X141933012Y-86250000D01*
X141965925Y-86192993D01*
X142000000Y-86065826D01*
X142000000Y-85934174D01*
X141965925Y-85807007D01*
X141933012Y-85750000D01*
X142830636Y-85750000D01*
X142830635Y-85749999D01*
X142773432Y-85536513D01*
X142773429Y-85536507D01*
X142673600Y-85322422D01*
X142673599Y-85322420D01*
X142538113Y-85128926D01*
X142538108Y-85128920D01*
X142416053Y-85006865D01*
X142382568Y-84945542D01*
X142387552Y-84875850D01*
X142429424Y-84819917D01*
X142460400Y-84803002D01*
X142592331Y-84753796D01*
X142707546Y-84667546D01*
X142793796Y-84552331D01*
X142844091Y-84417483D01*
X142850500Y-84357873D01*
X142850499Y-82562128D01*
X142844091Y-82502517D01*
X142810633Y-82412812D01*
X142793797Y-82367671D01*
X142793793Y-82367664D01*
X142707547Y-82252455D01*
X142707544Y-82252452D01*
X142592335Y-82166206D01*
X142592328Y-82166202D01*
X142457482Y-82115908D01*
X142457483Y-82115908D01*
X142397883Y-82109501D01*
X142397881Y-82109500D01*
X142397873Y-82109500D01*
X142397865Y-82109500D01*
X141016439Y-82109500D01*
X140949400Y-82089815D01*
X140928758Y-82073181D01*
X140394104Y-81538527D01*
X140394098Y-81538522D01*
X140262600Y-81462602D01*
X140262599Y-81462601D01*
X140262598Y-81462601D01*
X140115924Y-81423300D01*
X140115923Y-81423300D01*
X138766900Y-81423300D01*
X138719448Y-81413861D01*
X138682453Y-81398537D01*
X138682445Y-81398535D01*
X138561609Y-81374499D01*
X138561607Y-81374499D01*
X138438394Y-81374499D01*
X138438392Y-81374499D01*
X138317555Y-81398535D01*
X138317547Y-81398537D01*
X138203714Y-81445688D01*
X138203712Y-81445689D01*
X138101267Y-81514141D01*
X138101263Y-81514144D01*
X137432661Y-82182747D01*
X137371338Y-82216232D01*
X137358865Y-82218286D01*
X137322519Y-82222381D01*
X137153928Y-82281373D01*
X137002694Y-82376399D01*
X136876399Y-82502694D01*
X136781373Y-82653928D01*
X136722381Y-82822520D01*
X136702385Y-82999996D01*
X136702385Y-83000003D01*
X131848660Y-83000003D01*
X131835063Y-82844592D01*
X131773903Y-82616337D01*
X131674035Y-82402171D01*
X131655990Y-82376399D01*
X131538494Y-82208597D01*
X131371402Y-82041506D01*
X131371396Y-82041501D01*
X131185842Y-81911575D01*
X131142217Y-81856998D01*
X131135023Y-81787500D01*
X131166546Y-81725145D01*
X131185842Y-81708425D01*
X131230037Y-81677479D01*
X131371401Y-81578495D01*
X131538495Y-81411401D01*
X131674035Y-81217830D01*
X131773903Y-81003663D01*
X131835063Y-80775408D01*
X131855659Y-80540000D01*
X131835063Y-80304592D01*
X131773903Y-80076337D01*
X131674035Y-79862171D01*
X131662762Y-79846072D01*
X131538496Y-79668600D01*
X131538495Y-79668599D01*
X131416567Y-79546671D01*
X131383084Y-79485351D01*
X131388068Y-79415659D01*
X131429939Y-79359725D01*
X131460915Y-79342810D01*
X131592331Y-79293796D01*
X131707546Y-79207546D01*
X131793796Y-79092331D01*
X131844091Y-78957483D01*
X131850500Y-78897873D01*
X131850499Y-77102128D01*
X131844091Y-77042517D01*
X131842590Y-77038493D01*
X131793797Y-76907671D01*
X131793793Y-76907664D01*
X131707547Y-76792455D01*
X131707544Y-76792452D01*
X131592335Y-76706206D01*
X131592328Y-76706202D01*
X131457482Y-76655908D01*
X131457483Y-76655908D01*
X131397883Y-76649501D01*
X131397881Y-76649500D01*
X131397873Y-76649500D01*
X131397864Y-76649500D01*
X129602129Y-76649500D01*
X129602123Y-76649501D01*
X129542516Y-76655908D01*
X129407671Y-76706202D01*
X129407664Y-76706206D01*
X129292455Y-76792452D01*
X129292452Y-76792455D01*
X129206206Y-76907664D01*
X129206202Y-76907671D01*
X129155908Y-77042517D01*
X129149501Y-77102116D01*
X129149501Y-77102123D01*
X129149500Y-77102135D01*
X129149500Y-78897870D01*
X129149501Y-78897876D01*
X129155908Y-78957483D01*
X129206202Y-79092328D01*
X129206206Y-79092335D01*
X129292452Y-79207544D01*
X129292455Y-79207547D01*
X129407664Y-79293793D01*
X129407671Y-79293797D01*
X129539081Y-79342810D01*
X129595015Y-79384681D01*
X129619432Y-79450145D01*
X129604580Y-79518418D01*
X129583430Y-79546673D01*
X129461503Y-79668600D01*
X129325965Y-79862169D01*
X129325964Y-79862171D01*
X129226098Y-80076335D01*
X129226094Y-80076344D01*
X129164938Y-80304586D01*
X129164936Y-80304596D01*
X129144341Y-80539999D01*
X129144341Y-80540000D01*
X129164936Y-80775403D01*
X129164938Y-80775413D01*
X129226094Y-81003655D01*
X129226096Y-81003659D01*
X129226097Y-81003663D01*
X129278616Y-81116290D01*
X129325965Y-81217830D01*
X129325967Y-81217834D01*
X129461501Y-81411395D01*
X129461506Y-81411402D01*
X129628597Y-81578493D01*
X129628603Y-81578498D01*
X129814158Y-81708425D01*
X129857783Y-81763002D01*
X129864977Y-81832500D01*
X129833454Y-81894855D01*
X129814158Y-81911575D01*
X129628597Y-82041505D01*
X129461505Y-82208597D01*
X129325965Y-82402169D01*
X129325964Y-82402171D01*
X129226098Y-82616335D01*
X129226094Y-82616344D01*
X129164938Y-82844586D01*
X129164936Y-82844596D01*
X129144341Y-83079999D01*
X129144341Y-83080000D01*
X129164936Y-83315403D01*
X129164938Y-83315413D01*
X129226094Y-83543655D01*
X129226096Y-83543659D01*
X129226097Y-83543663D01*
X129263373Y-83623601D01*
X129325965Y-83757830D01*
X129325967Y-83757834D01*
X129461501Y-83951395D01*
X129461506Y-83951402D01*
X129628597Y-84118493D01*
X129628603Y-84118498D01*
X129814158Y-84248425D01*
X129857783Y-84303002D01*
X129864977Y-84372500D01*
X129833454Y-84434855D01*
X129814158Y-84451575D01*
X129628597Y-84581505D01*
X129461505Y-84748597D01*
X129325965Y-84942169D01*
X129325964Y-84942171D01*
X129226098Y-85156335D01*
X129226094Y-85156344D01*
X129164938Y-85384586D01*
X129164936Y-85384596D01*
X129144341Y-85619999D01*
X129144341Y-85620000D01*
X128076700Y-85620000D01*
X128076700Y-80095568D01*
X128096385Y-80028529D01*
X128113019Y-80007887D01*
X128123601Y-79997305D01*
X128218626Y-79846072D01*
X128277617Y-79677486D01*
X128278618Y-79668600D01*
X128297615Y-79500003D01*
X128297615Y-79499996D01*
X128277618Y-79322520D01*
X128277617Y-79322518D01*
X128277617Y-79322514D01*
X128218626Y-79153928D01*
X128123601Y-79002695D01*
X127997305Y-78876399D01*
X127956656Y-78850858D01*
X127846071Y-78781373D01*
X127746390Y-78746493D01*
X127677486Y-78722383D01*
X127677484Y-78722382D01*
X127677479Y-78722381D01*
X127500004Y-78702385D01*
X127499996Y-78702385D01*
X127322520Y-78722381D01*
X127153928Y-78781373D01*
X127002694Y-78876399D01*
X126876399Y-79002694D01*
X126781373Y-79153928D01*
X126722381Y-79322520D01*
X126702385Y-79499996D01*
X126702385Y-79500003D01*
X126722381Y-79677479D01*
X126722382Y-79677484D01*
X126722383Y-79677486D01*
X126733209Y-79708425D01*
X126781373Y-79846071D01*
X126876399Y-79997305D01*
X126886981Y-80007887D01*
X126920466Y-80069210D01*
X126923300Y-80095568D01*
X126923300Y-81049251D01*
X126903615Y-81116290D01*
X126850811Y-81162045D01*
X126781653Y-81171989D01*
X126718097Y-81142964D01*
X126694306Y-81115223D01*
X126672174Y-81080000D01*
X126623601Y-81002695D01*
X126497305Y-80876399D01*
X126446684Y-80844592D01*
X126346071Y-80781373D01*
X126246390Y-80746493D01*
X126177486Y-80722383D01*
X126177484Y-80722382D01*
X126177479Y-80722381D01*
X126000004Y-80702385D01*
X125999996Y-80702385D01*
X125822520Y-80722381D01*
X125653928Y-80781373D01*
X125502694Y-80876399D01*
X125376399Y-81002694D01*
X125281373Y-81153928D01*
X125222381Y-81322520D01*
X125202385Y-81499996D01*
X125202385Y-81500003D01*
X125222381Y-81677479D01*
X125281373Y-81846071D01*
X125376399Y-81997305D01*
X125386981Y-82007887D01*
X125420466Y-82069210D01*
X125423300Y-82095568D01*
X125423300Y-89249760D01*
X125403615Y-89316799D01*
X125386981Y-89337441D01*
X124550075Y-90174346D01*
X124488752Y-90207831D01*
X124430301Y-90206440D01*
X124275413Y-90164938D01*
X124275403Y-90164936D01*
X124040001Y-90144341D01*
X124039999Y-90144341D01*
X123804596Y-90164936D01*
X123804586Y-90164938D01*
X123576344Y-90226094D01*
X123576335Y-90226098D01*
X123362171Y-90325964D01*
X123362169Y-90325965D01*
X123168597Y-90461505D01*
X123001505Y-90628597D01*
X122871575Y-90814158D01*
X122816998Y-90857783D01*
X122747500Y-90864977D01*
X122685145Y-90833454D01*
X122668425Y-90814158D01*
X122538494Y-90628597D01*
X122371402Y-90461506D01*
X122371395Y-90461501D01*
X122177834Y-90325967D01*
X122177830Y-90325965D01*
X122155403Y-90315507D01*
X121963663Y-90226097D01*
X121963659Y-90226096D01*
X121963655Y-90226094D01*
X121735413Y-90164938D01*
X121735403Y-90164936D01*
X121500001Y-90144341D01*
X121499999Y-90144341D01*
X121264596Y-90164936D01*
X121264586Y-90164938D01*
X121036344Y-90226094D01*
X121036335Y-90226098D01*
X120822171Y-90325964D01*
X120822169Y-90325965D01*
X120628597Y-90461505D01*
X120461505Y-90628597D01*
X120331575Y-90814158D01*
X120276998Y-90857783D01*
X120207500Y-90864977D01*
X120145145Y-90833454D01*
X120128425Y-90814158D01*
X119998494Y-90628597D01*
X119831402Y-90461506D01*
X119831395Y-90461501D01*
X119637834Y-90325967D01*
X119637830Y-90325965D01*
X119615403Y-90315507D01*
X119423663Y-90226097D01*
X119423659Y-90226096D01*
X119423655Y-90226094D01*
X119195413Y-90164938D01*
X119195403Y-90164936D01*
X118960001Y-90144341D01*
X118959999Y-90144341D01*
X118724596Y-90164936D01*
X118724586Y-90164938D01*
X118496344Y-90226094D01*
X118496335Y-90226098D01*
X118282171Y-90325964D01*
X118282169Y-90325965D01*
X118088600Y-90461503D01*
X117966673Y-90583430D01*
X117905350Y-90616914D01*
X117835658Y-90611930D01*
X117779725Y-90570058D01*
X117762810Y-90539081D01*
X117713797Y-90407671D01*
X117713793Y-90407664D01*
X117627547Y-90292455D01*
X117627544Y-90292452D01*
X117512335Y-90206206D01*
X117512328Y-90206202D01*
X117377482Y-90155908D01*
X117377483Y-90155908D01*
X117317883Y-90149501D01*
X117317881Y-90149500D01*
X117317873Y-90149500D01*
X117317864Y-90149500D01*
X115522129Y-90149500D01*
X115522123Y-90149501D01*
X115462516Y-90155908D01*
X115327671Y-90206202D01*
X115327664Y-90206206D01*
X115212455Y-90292452D01*
X115212452Y-90292455D01*
X115126206Y-90407664D01*
X115126202Y-90407671D01*
X115075908Y-90542517D01*
X115069501Y-90602116D01*
X115069500Y-90602135D01*
X115069500Y-92397870D01*
X105000000Y-92397870D01*
X105000000Y-88157870D01*
X111699500Y-88157870D01*
X111699501Y-88157876D01*
X111705908Y-88217483D01*
X111756202Y-88352328D01*
X111756206Y-88352335D01*
X111842452Y-88467544D01*
X111842455Y-88467547D01*
X111957664Y-88553793D01*
X111957671Y-88553797D01*
X112092517Y-88604091D01*
X112092516Y-88604091D01*
X112099444Y-88604835D01*
X112152127Y-88610500D01*
X113847872Y-88610499D01*
X113907483Y-88604091D01*
X114042331Y-88553796D01*
X114157546Y-88467546D01*
X114243796Y-88352331D01*
X114294091Y-88217483D01*
X114300500Y-88157873D01*
X114300499Y-86462128D01*
X114294091Y-86402517D01*
X114293189Y-86400099D01*
X114243797Y-86267671D01*
X114243793Y-86267664D01*
X114157547Y-86152455D01*
X114157544Y-86152452D01*
X114042335Y-86066206D01*
X114042328Y-86066202D01*
X113907482Y-86015908D01*
X113907483Y-86015908D01*
X113847883Y-86009501D01*
X113847881Y-86009500D01*
X113847873Y-86009500D01*
X113847864Y-86009500D01*
X112152129Y-86009500D01*
X112152123Y-86009501D01*
X112092516Y-86015908D01*
X111957671Y-86066202D01*
X111957664Y-86066206D01*
X111842455Y-86152452D01*
X111842452Y-86152455D01*
X111756206Y-86267664D01*
X111756202Y-86267671D01*
X111705908Y-86402517D01*
X111699999Y-86457482D01*
X111699501Y-86462123D01*
X111699500Y-86462135D01*
X111699500Y-88157870D01*
X105000000Y-88157870D01*
X105000000Y-81080000D01*
X107144341Y-81080000D01*
X107164936Y-81315403D01*
X107164938Y-81315413D01*
X107226094Y-81543655D01*
X107226096Y-81543659D01*
X107226097Y-81543663D01*
X107242341Y-81578498D01*
X107325965Y-81757830D01*
X107325967Y-81757834D01*
X107394852Y-81856211D01*
X107461501Y-81951396D01*
X107461506Y-81951402D01*
X107583818Y-82073714D01*
X107617303Y-82135037D01*
X107612319Y-82204729D01*
X107570447Y-82260662D01*
X107539471Y-82277577D01*
X107407912Y-82326646D01*
X107407906Y-82326649D01*
X107292812Y-82412809D01*
X107292809Y-82412812D01*
X107206649Y-82527906D01*
X107206645Y-82527913D01*
X107156403Y-82662620D01*
X107156401Y-82662627D01*
X107150000Y-82722155D01*
X107150000Y-83370000D01*
X108066988Y-83370000D01*
X108034075Y-83427007D01*
X108000000Y-83554174D01*
X108000000Y-83685826D01*
X108034075Y-83812993D01*
X108066988Y-83870000D01*
X107150000Y-83870000D01*
X107150000Y-84517844D01*
X107156401Y-84577372D01*
X107156403Y-84577379D01*
X107206645Y-84712086D01*
X107206649Y-84712093D01*
X107292809Y-84827187D01*
X107292812Y-84827190D01*
X107407906Y-84913350D01*
X107407913Y-84913354D01*
X107542620Y-84963596D01*
X107542627Y-84963598D01*
X107602155Y-84969999D01*
X107602172Y-84970000D01*
X108250000Y-84970000D01*
X108250000Y-84053012D01*
X108307007Y-84085925D01*
X108434174Y-84120000D01*
X108565826Y-84120000D01*
X108692993Y-84085925D01*
X108750000Y-84053012D01*
X108750000Y-84970000D01*
X109397828Y-84970000D01*
X109397844Y-84969999D01*
X109457372Y-84963598D01*
X109457379Y-84963596D01*
X109592086Y-84913354D01*
X109592093Y-84913350D01*
X109707187Y-84827190D01*
X109707190Y-84827187D01*
X109793350Y-84712093D01*
X109793354Y-84712086D01*
X109843596Y-84577379D01*
X109843598Y-84577372D01*
X109849999Y-84517844D01*
X109850000Y-84517827D01*
X109850000Y-83870000D01*
X108933012Y-83870000D01*
X108965925Y-83812993D01*
X109000000Y-83685826D01*
X109000000Y-83554174D01*
X108965925Y-83427007D01*
X108933012Y-83370000D01*
X109850000Y-83370000D01*
X109850000Y-82722172D01*
X109849999Y-82722155D01*
X109843598Y-82662627D01*
X109843596Y-82662620D01*
X109793354Y-82527913D01*
X109793350Y-82527906D01*
X109707190Y-82412812D01*
X109707187Y-82412809D01*
X109592093Y-82326649D01*
X109592088Y-82326646D01*
X109460528Y-82277577D01*
X109404595Y-82235705D01*
X109380178Y-82170241D01*
X109395030Y-82101968D01*
X109416175Y-82073720D01*
X109538495Y-81951401D01*
X109674035Y-81757830D01*
X109773903Y-81543663D01*
X109835063Y-81315408D01*
X109855659Y-81080000D01*
X109835063Y-80844592D01*
X109773903Y-80616337D01*
X109674035Y-80402171D01*
X109538495Y-80208599D01*
X109538494Y-80208597D01*
X109371402Y-80041506D01*
X109371396Y-80041501D01*
X109185842Y-79911575D01*
X109142217Y-79856998D01*
X109135023Y-79787500D01*
X109166546Y-79725145D01*
X109185842Y-79708425D01*
X109212154Y-79690001D01*
X111694532Y-79690001D01*
X111714364Y-79916686D01*
X111714366Y-79916697D01*
X111773258Y-80136488D01*
X111773261Y-80136497D01*
X111869431Y-80342732D01*
X111869432Y-80342734D01*
X111999954Y-80529141D01*
X112160858Y-80690045D01*
X112160861Y-80690047D01*
X112347266Y-80820568D01*
X112553504Y-80916739D01*
X112773308Y-80975635D01*
X112935230Y-80989801D01*
X112999998Y-80995468D01*
X113000000Y-80995468D01*
X113000002Y-80995468D01*
X113056673Y-80990509D01*
X113226692Y-80975635D01*
X113446496Y-80916739D01*
X113652734Y-80820568D01*
X113839139Y-80690047D01*
X114000047Y-80529139D01*
X114130568Y-80342734D01*
X114226739Y-80136496D01*
X114285635Y-79916692D01*
X114305468Y-79690000D01*
X114285635Y-79463308D01*
X114226739Y-79243504D01*
X114130568Y-79037266D01*
X114000047Y-78850861D01*
X114000045Y-78850858D01*
X113839141Y-78689954D01*
X113652734Y-78559432D01*
X113652732Y-78559431D01*
X113446497Y-78463261D01*
X113446488Y-78463258D01*
X113226697Y-78404366D01*
X113226693Y-78404365D01*
X113226692Y-78404365D01*
X113226691Y-78404364D01*
X113226686Y-78404364D01*
X113000002Y-78384532D01*
X112999998Y-78384532D01*
X112773313Y-78404364D01*
X112773302Y-78404366D01*
X112553511Y-78463258D01*
X112553502Y-78463261D01*
X112347267Y-78559431D01*
X112347265Y-78559432D01*
X112160858Y-78689954D01*
X111999954Y-78850858D01*
X111869432Y-79037265D01*
X111869431Y-79037267D01*
X111773261Y-79243502D01*
X111773258Y-79243511D01*
X111714366Y-79463302D01*
X111714364Y-79463313D01*
X111694532Y-79689998D01*
X111694532Y-79690001D01*
X109212154Y-79690001D01*
X109371401Y-79578495D01*
X109538495Y-79411401D01*
X109674035Y-79217830D01*
X109773903Y-79003663D01*
X109835063Y-78775408D01*
X109855659Y-78540000D01*
X109835063Y-78304592D01*
X109773903Y-78076337D01*
X109674035Y-77862171D01*
X109538495Y-77668599D01*
X109538494Y-77668597D01*
X109371402Y-77501506D01*
X109371396Y-77501501D01*
X109185842Y-77371575D01*
X109142217Y-77316998D01*
X109135023Y-77247500D01*
X109166546Y-77185145D01*
X109185842Y-77168425D01*
X109208026Y-77152891D01*
X109371401Y-77038495D01*
X109538495Y-76871401D01*
X109674035Y-76677830D01*
X109773903Y-76463663D01*
X109835063Y-76235408D01*
X109855659Y-76000000D01*
X109835063Y-75764592D01*
X109773903Y-75536337D01*
X109674035Y-75322171D01*
X109538495Y-75128599D01*
X109538494Y-75128597D01*
X109371402Y-74961506D01*
X109371396Y-74961501D01*
X109185842Y-74831575D01*
X109142217Y-74776998D01*
X109135023Y-74707500D01*
X109166546Y-74645145D01*
X109185842Y-74628425D01*
X109208026Y-74612891D01*
X109371401Y-74498495D01*
X109538495Y-74331401D01*
X109674035Y-74137830D01*
X109773903Y-73923663D01*
X109835063Y-73695408D01*
X109855659Y-73460000D01*
X109835063Y-73224592D01*
X109773903Y-72996337D01*
X109674035Y-72782171D01*
X109538495Y-72588599D01*
X109538494Y-72588597D01*
X109371402Y-72421506D01*
X109371396Y-72421501D01*
X109185842Y-72291575D01*
X109142217Y-72236998D01*
X109135023Y-72167500D01*
X109166546Y-72105145D01*
X109185842Y-72088425D01*
X109208026Y-72072891D01*
X109371401Y-71958495D01*
X109538495Y-71791401D01*
X109674035Y-71597830D01*
X109773903Y-71383663D01*
X109835063Y-71155408D01*
X109855659Y-70920000D01*
X109835063Y-70684592D01*
X109773903Y-70456337D01*
X109674035Y-70242171D01*
X109538495Y-70048599D01*
X109538494Y-70048597D01*
X109371402Y-69881506D01*
X109371395Y-69881501D01*
X109177834Y-69745967D01*
X109177830Y-69745965D01*
X109177828Y-69745964D01*
X108963663Y-69646097D01*
X108963659Y-69646096D01*
X108963655Y-69646094D01*
X108735413Y-69584938D01*
X108735403Y-69584936D01*
X108500001Y-69564341D01*
X108499999Y-69564341D01*
X108264596Y-69584936D01*
X108264586Y-69584938D01*
X108036344Y-69646094D01*
X108036335Y-69646098D01*
X107822171Y-69745964D01*
X107822169Y-69745965D01*
X107628597Y-69881505D01*
X107461505Y-70048597D01*
X107325965Y-70242169D01*
X107325964Y-70242171D01*
X107226098Y-70456335D01*
X107226094Y-70456344D01*
X107164938Y-70684586D01*
X107164936Y-70684596D01*
X107144341Y-70919999D01*
X107144341Y-70920000D01*
X107164936Y-71155403D01*
X107164938Y-71155413D01*
X107226094Y-71383655D01*
X107226096Y-71383659D01*
X107226097Y-71383663D01*
X107325965Y-71597830D01*
X107325967Y-71597834D01*
X107461501Y-71791395D01*
X107461506Y-71791402D01*
X107628597Y-71958493D01*
X107628603Y-71958498D01*
X107814158Y-72088425D01*
X107857783Y-72143002D01*
X107864977Y-72212500D01*
X107833454Y-72274855D01*
X107814158Y-72291575D01*
X107628597Y-72421505D01*
X107461505Y-72588597D01*
X107325965Y-72782169D01*
X107325964Y-72782171D01*
X107226098Y-72996335D01*
X107226094Y-72996344D01*
X107164938Y-73224586D01*
X107164936Y-73224596D01*
X107144341Y-73459999D01*
X107144341Y-73460000D01*
X107164936Y-73695403D01*
X107164938Y-73695413D01*
X107226094Y-73923655D01*
X107226096Y-73923659D01*
X107226097Y-73923663D01*
X107325965Y-74137830D01*
X107325967Y-74137834D01*
X107461501Y-74331395D01*
X107461506Y-74331402D01*
X107628597Y-74498493D01*
X107628603Y-74498498D01*
X107814158Y-74628425D01*
X107857783Y-74683002D01*
X107864977Y-74752500D01*
X107833454Y-74814855D01*
X107814158Y-74831575D01*
X107628597Y-74961505D01*
X107461505Y-75128597D01*
X107325965Y-75322169D01*
X107325964Y-75322171D01*
X107226098Y-75536335D01*
X107226094Y-75536344D01*
X107164938Y-75764586D01*
X107164936Y-75764596D01*
X107144341Y-75999999D01*
X107144341Y-76000000D01*
X107164936Y-76235403D01*
X107164938Y-76235413D01*
X107226094Y-76463655D01*
X107226096Y-76463659D01*
X107226097Y-76463663D01*
X107312755Y-76649501D01*
X107325965Y-76677830D01*
X107325967Y-76677834D01*
X107461501Y-76871395D01*
X107461506Y-76871402D01*
X107628597Y-77038493D01*
X107628603Y-77038498D01*
X107814158Y-77168425D01*
X107857783Y-77223002D01*
X107864977Y-77292500D01*
X107833454Y-77354855D01*
X107814158Y-77371575D01*
X107628597Y-77501505D01*
X107461505Y-77668597D01*
X107325965Y-77862169D01*
X107325964Y-77862171D01*
X107226098Y-78076335D01*
X107226094Y-78076344D01*
X107164938Y-78304586D01*
X107164936Y-78304596D01*
X107144341Y-78539999D01*
X107144341Y-78540000D01*
X107164936Y-78775403D01*
X107164938Y-78775413D01*
X107226094Y-79003655D01*
X107226096Y-79003659D01*
X107226097Y-79003663D01*
X107321170Y-79207547D01*
X107325965Y-79217830D01*
X107325967Y-79217834D01*
X107399270Y-79322520D01*
X107442795Y-79384681D01*
X107461501Y-79411395D01*
X107461506Y-79411402D01*
X107628597Y-79578493D01*
X107628603Y-79578498D01*
X107814158Y-79708425D01*
X107857783Y-79763002D01*
X107864977Y-79832500D01*
X107833454Y-79894855D01*
X107814158Y-79911575D01*
X107628597Y-80041505D01*
X107461505Y-80208597D01*
X107325965Y-80402169D01*
X107325964Y-80402171D01*
X107226098Y-80616335D01*
X107226094Y-80616344D01*
X107164938Y-80844586D01*
X107164936Y-80844596D01*
X107144341Y-81079999D01*
X107144341Y-81080000D01*
X105000000Y-81080000D01*
X105000000Y-66624000D01*
X105019685Y-66556961D01*
X105072489Y-66511206D01*
X105124000Y-66500000D01*
X144376000Y-66500000D01*
X144443039Y-66519685D01*
G37*
%TD.AperFunction*%
%TD*%
M02*
