%TF.GenerationSoftware,KiCad,Pcbnew,8.0.0-8.0.0-1~ubuntu20.04.1*%
%TF.CreationDate,2024-03-10T03:56:21-05:00*%
%TF.ProjectId,avr16dd14_dev_board,61767231-3664-4643-9134-5f6465765f62,rev?*%
%TF.SameCoordinates,Original*%
%TF.FileFunction,Soldermask,Top*%
%TF.FilePolarity,Negative*%
%FSLAX46Y46*%
G04 Gerber Fmt 4.6, Leading zero omitted, Abs format (unit mm)*
G04 Created by KiCad (PCBNEW 8.0.0-8.0.0-1~ubuntu20.04.1) date 2024-03-10 03:56:21*
%MOMM*%
%LPD*%
G01*
G04 APERTURE LIST*
G04 Aperture macros list*
%AMRoundRect*
0 Rectangle with rounded corners*
0 $1 Rounding radius*
0 $2 $3 $4 $5 $6 $7 $8 $9 X,Y pos of 4 corners*
0 Add a 4 corners polygon primitive as box body*
4,1,4,$2,$3,$4,$5,$6,$7,$8,$9,$2,$3,0*
0 Add four circle primitives for the rounded corners*
1,1,$1+$1,$2,$3*
1,1,$1+$1,$4,$5*
1,1,$1+$1,$6,$7*
1,1,$1+$1,$8,$9*
0 Add four rect primitives between the rounded corners*
20,1,$1+$1,$2,$3,$4,$5,0*
20,1,$1+$1,$4,$5,$6,$7,0*
20,1,$1+$1,$6,$7,$8,$9,0*
20,1,$1+$1,$8,$9,$2,$3,0*%
G04 Aperture macros list end*
%ADD10RoundRect,0.050800X0.850000X0.850000X-0.850000X0.850000X-0.850000X-0.850000X0.850000X-0.850000X0*%
%ADD11O,1.801600X1.801600*%
%ADD12RoundRect,0.050800X0.575000X-0.300000X0.575000X0.300000X-0.575000X0.300000X-0.575000X-0.300000X0*%
%ADD13RoundRect,0.050800X0.325000X0.750000X-0.325000X0.750000X-0.325000X-0.750000X0.325000X-0.750000X0*%
%ADD14RoundRect,0.269150X0.481650X-0.269150X0.481650X0.269150X-0.481650X0.269150X-0.481650X-0.269150X0*%
%ADD15RoundRect,0.050800X0.850000X-0.850000X0.850000X0.850000X-0.850000X0.850000X-0.850000X-0.850000X0*%
%ADD16RoundRect,0.050800X-0.850000X-0.850000X0.850000X-0.850000X0.850000X0.850000X-0.850000X0.850000X0*%
%ADD17RoundRect,0.274780X-0.476020X0.288520X-0.476020X-0.288520X0.476020X-0.288520X0.476020X0.288520X0*%
%ADD18RoundRect,0.274780X0.288520X0.476020X-0.288520X0.476020X-0.288520X-0.476020X0.288520X-0.476020X0*%
%ADD19RoundRect,0.274780X0.476020X-0.288520X0.476020X0.288520X-0.476020X0.288520X-0.476020X-0.288520X0*%
%ADD20RoundRect,0.275400X0.500400X-0.275400X0.500400X0.275400X-0.500400X0.275400X-0.500400X-0.275400X0*%
%ADD21RoundRect,0.275400X0.275400X0.500400X-0.275400X0.500400X-0.275400X-0.500400X0.275400X-0.500400X0*%
%ADD22RoundRect,0.050800X0.800000X-0.800000X0.800000X0.800000X-0.800000X0.800000X-0.800000X-0.800000X0*%
%ADD23O,1.701600X1.701600*%
G04 APERTURE END LIST*
D10*
%TO.C,J1*%
X108500000Y-83620000D03*
D11*
X108500000Y-81080000D03*
X108500000Y-78540000D03*
X108500000Y-76000000D03*
X108500000Y-73460000D03*
X108500000Y-70920000D03*
%TD*%
D12*
%TO.C,IC2*%
X134000000Y-73550000D03*
X134000000Y-74500000D03*
X134000000Y-75450000D03*
X136500000Y-75450000D03*
X136500000Y-73550000D03*
%TD*%
D13*
%TO.C,IC1*%
X118380000Y-85400000D03*
X119650000Y-85400000D03*
X120920000Y-85400000D03*
X122190000Y-85400000D03*
X123460000Y-85400000D03*
X124730000Y-85400000D03*
X126000000Y-85400000D03*
X126000000Y-80000000D03*
X124730000Y-80000000D03*
X123460000Y-80000000D03*
X122190000Y-80000000D03*
X120920000Y-80000000D03*
X119650000Y-80000000D03*
X118380000Y-80000000D03*
%TD*%
D14*
%TO.C,D2*%
X122500000Y-77375000D03*
X122500000Y-75500000D03*
%TD*%
D11*
%TO.C,J6*%
X126580000Y-91500000D03*
X124040000Y-91500000D03*
X121500000Y-91500000D03*
X118960000Y-91500000D03*
D15*
X116420000Y-91500000D03*
%TD*%
D11*
%TO.C,J5*%
X130500000Y-85620000D03*
X130500000Y-83080000D03*
X130500000Y-80540000D03*
D16*
X130500000Y-78000000D03*
%TD*%
D17*
%TO.C,R5*%
X120000000Y-75500000D03*
X120000000Y-77325000D03*
%TD*%
D18*
%TO.C,R4*%
X139000000Y-78050000D03*
X137175000Y-78050000D03*
%TD*%
D19*
%TO.C,R3*%
X136500000Y-82050000D03*
X136500000Y-80225000D03*
%TD*%
%TO.C,R2*%
X134500000Y-82050000D03*
X134500000Y-80225000D03*
%TD*%
D11*
%TO.C,J4*%
X135000000Y-93120000D03*
X135000000Y-90580000D03*
X135000000Y-88040000D03*
D16*
X135000000Y-85500000D03*
%TD*%
%TO.C,J2*%
X141500000Y-83460000D03*
D11*
X141500000Y-86000000D03*
X141500000Y-88540000D03*
X141500000Y-91080000D03*
%TD*%
D14*
%TO.C,D1*%
X141500000Y-79875000D03*
X141500000Y-78000000D03*
%TD*%
D20*
%TO.C,C2*%
X140500000Y-73550000D03*
X140500000Y-75450000D03*
%TD*%
D21*
%TO.C,C1*%
X117950000Y-77050000D03*
X116050000Y-77050000D03*
%TD*%
D22*
%TO.C,D3*%
X113000000Y-87310000D03*
D23*
X113000000Y-79690000D03*
%TD*%
M02*
