%TF.GenerationSoftware,KiCad,Pcbnew,8.0.0-8.0.0-1~ubuntu20.04.1*%
%TF.CreationDate,2024-03-10T03:56:21-05:00*%
%TF.ProjectId,avr16dd14_dev_board,61767231-3664-4643-9134-5f6465765f62,rev?*%
%TF.SameCoordinates,Original*%
%TF.FileFunction,Copper,L1,Top*%
%TF.FilePolarity,Positive*%
%FSLAX46Y46*%
G04 Gerber Fmt 4.6, Leading zero omitted, Abs format (unit mm)*
G04 Created by KiCad (PCBNEW 8.0.0-8.0.0-1~ubuntu20.04.1) date 2024-03-10 03:56:21*
%MOMM*%
%LPD*%
G01*
G04 APERTURE LIST*
G04 Aperture macros list*
%AMRoundRect*
0 Rectangle with rounded corners*
0 $1 Rounding radius*
0 $2 $3 $4 $5 $6 $7 $8 $9 X,Y pos of 4 corners*
0 Add a 4 corners polygon primitive as box body*
4,1,4,$2,$3,$4,$5,$6,$7,$8,$9,$2,$3,0*
0 Add four circle primitives for the rounded corners*
1,1,$1+$1,$2,$3*
1,1,$1+$1,$4,$5*
1,1,$1+$1,$6,$7*
1,1,$1+$1,$8,$9*
0 Add four rect primitives between the rounded corners*
20,1,$1+$1,$2,$3,$4,$5,0*
20,1,$1+$1,$4,$5,$6,$7,0*
20,1,$1+$1,$6,$7,$8,$9,0*
20,1,$1+$1,$8,$9,$2,$3,0*%
G04 Aperture macros list end*
%TA.AperFunction,ComponentPad*%
%ADD10R,1.700000X1.700000*%
%TD*%
%TA.AperFunction,ComponentPad*%
%ADD11O,1.700000X1.700000*%
%TD*%
%TA.AperFunction,SMDPad,CuDef*%
%ADD12R,1.150000X0.600000*%
%TD*%
%TA.AperFunction,SMDPad,CuDef*%
%ADD13R,0.650000X1.500000*%
%TD*%
%TA.AperFunction,SMDPad,CuDef*%
%ADD14RoundRect,0.243750X0.456250X-0.243750X0.456250X0.243750X-0.456250X0.243750X-0.456250X-0.243750X0*%
%TD*%
%TA.AperFunction,SMDPad,CuDef*%
%ADD15RoundRect,0.250000X-0.450000X0.262500X-0.450000X-0.262500X0.450000X-0.262500X0.450000X0.262500X0*%
%TD*%
%TA.AperFunction,SMDPad,CuDef*%
%ADD16RoundRect,0.250000X0.262500X0.450000X-0.262500X0.450000X-0.262500X-0.450000X0.262500X-0.450000X0*%
%TD*%
%TA.AperFunction,SMDPad,CuDef*%
%ADD17RoundRect,0.250000X0.450000X-0.262500X0.450000X0.262500X-0.450000X0.262500X-0.450000X-0.262500X0*%
%TD*%
%TA.AperFunction,SMDPad,CuDef*%
%ADD18RoundRect,0.250000X0.475000X-0.250000X0.475000X0.250000X-0.475000X0.250000X-0.475000X-0.250000X0*%
%TD*%
%TA.AperFunction,SMDPad,CuDef*%
%ADD19RoundRect,0.250000X0.250000X0.475000X-0.250000X0.475000X-0.250000X-0.475000X0.250000X-0.475000X0*%
%TD*%
%TA.AperFunction,ComponentPad*%
%ADD20R,1.600000X1.600000*%
%TD*%
%TA.AperFunction,ComponentPad*%
%ADD21O,1.600000X1.600000*%
%TD*%
%TA.AperFunction,ViaPad*%
%ADD22C,0.584200*%
%TD*%
%TA.AperFunction,Conductor*%
%ADD23C,0.508000*%
%TD*%
%TA.AperFunction,Conductor*%
%ADD24C,0.152400*%
%TD*%
%TA.AperFunction,Conductor*%
%ADD25C,0.250000*%
%TD*%
G04 APERTURE END LIST*
D10*
%TO.P,J1,1,Pin_1*%
%TO.N,0*%
X108500000Y-83620000D03*
D11*
%TO.P,J1,2,Pin_2*%
%TO.N,unconnected-(J1-Pin_2-Pad2)*%
X108500000Y-81080000D03*
%TO.P,J1,3,Pin_3*%
%TO.N,/VIN*%
X108500000Y-78540000D03*
%TO.P,J1,4,Pin_4*%
%TO.N,/TX*%
X108500000Y-76000000D03*
%TO.P,J1,5,Pin_5*%
%TO.N,/RX*%
X108500000Y-73460000D03*
%TO.P,J1,6,Pin_6*%
%TO.N,unconnected-(J1-Pin_6-Pad6)*%
X108500000Y-70920000D03*
%TD*%
D12*
%TO.P,IC2,1,VOUT*%
%TO.N,/VDD*%
X134000000Y-73550000D03*
%TO.P,IC2,2,GND*%
%TO.N,0*%
X134000000Y-74500000D03*
%TO.P,IC2,3,VIN*%
%TO.N,/VIN*%
X134000000Y-75450000D03*
%TO.P,IC2,4,NC/ADJ*%
%TO.N,unconnected-(IC2-NC{slash}ADJ-Pad4)*%
X136500000Y-75450000D03*
%TO.P,IC2,5,EN*%
%TO.N,/VIN*%
X136500000Y-73550000D03*
%TD*%
D13*
%TO.P,IC1,1,GND*%
%TO.N,0*%
X118380000Y-85400000D03*
%TO.P,IC1,2,PF6(~{RESET})*%
%TO.N,/RESET*%
X119650000Y-85400000D03*
%TO.P,IC1,3,PF7(UPDI)*%
%TO.N,/RX*%
X120920000Y-85400000D03*
%TO.P,IC1,4,PA0(XTAL1)*%
%TO.N,/SDA*%
X122190000Y-85400000D03*
%TO.P,IC1,5,PA1(XTAL2)*%
%TO.N,/SCL*%
X123460000Y-85400000D03*
%TO.P,IC1,6,PC1*%
%TO.N,/PC1*%
X124730000Y-85400000D03*
%TO.P,IC1,7,PC2*%
%TO.N,/PC2*%
X126000000Y-85400000D03*
%TO.P,IC1,8,PC3*%
%TO.N,/PC3*%
X126000000Y-80000000D03*
%TO.P,IC1,9,VDDIO2*%
%TO.N,/VDD*%
X124730000Y-80000000D03*
%TO.P,IC1,10,PD4*%
%TO.N,/PD4*%
X123460000Y-80000000D03*
%TO.P,IC1,11,PD5*%
%TO.N,/PD5*%
X122190000Y-80000000D03*
%TO.P,IC1,12,PD6*%
%TO.N,/PD6*%
X120920000Y-80000000D03*
%TO.P,IC1,13,PD7*%
%TO.N,/PD7*%
X119650000Y-80000000D03*
%TO.P,IC1,14,VDD*%
%TO.N,/VDD*%
X118380000Y-80000000D03*
%TD*%
D14*
%TO.P,D2,1,K*%
%TO.N,0*%
X122500000Y-77375000D03*
%TO.P,D2,2,A*%
%TO.N,Net-(D2-A)*%
X122500000Y-75500000D03*
%TD*%
D11*
%TO.P,J6,5,Pin_5*%
%TO.N,/PD4*%
X126580000Y-91500000D03*
%TO.P,J6,4,Pin_4*%
%TO.N,/PC3*%
X124040000Y-91500000D03*
%TO.P,J6,3,Pin_3*%
%TO.N,/PC2*%
X121500000Y-91500000D03*
%TO.P,J6,2,Pin_2*%
%TO.N,/PC1*%
X118960000Y-91500000D03*
D10*
%TO.P,J6,1,Pin_1*%
%TO.N,/RESET*%
X116420000Y-91500000D03*
%TD*%
D11*
%TO.P,J5,4,Pin_4*%
%TO.N,/VDDIO2*%
X130500000Y-85620000D03*
%TO.P,J5,3,Pin_3*%
%TO.N,/PD7*%
X130500000Y-83080000D03*
%TO.P,J5,2,Pin_2*%
%TO.N,/PD6*%
X130500000Y-80540000D03*
D10*
%TO.P,J5,1,Pin_1*%
%TO.N,/PD5*%
X130500000Y-78000000D03*
%TD*%
D15*
%TO.P,R5,1*%
%TO.N,Net-(D2-A)*%
X120000000Y-75500000D03*
%TO.P,R5,2*%
%TO.N,/PD7*%
X120000000Y-77325000D03*
%TD*%
D16*
%TO.P,R4,1*%
%TO.N,Net-(D1-A)*%
X139000000Y-78050000D03*
%TO.P,R4,2*%
%TO.N,/VDD*%
X137175000Y-78050000D03*
%TD*%
D17*
%TO.P,R3,1*%
%TO.N,/SCL*%
X136500000Y-82050000D03*
%TO.P,R3,2*%
%TO.N,/VDD*%
X136500000Y-80225000D03*
%TD*%
%TO.P,R2,1*%
%TO.N,/SDA*%
X134500000Y-82050000D03*
%TO.P,R2,2*%
%TO.N,/VDD*%
X134500000Y-80225000D03*
%TD*%
D11*
%TO.P,J4,4,Pin_4*%
%TO.N,/VIN*%
X135000000Y-93120000D03*
%TO.P,J4,3,Pin_3*%
%TO.N,/SDA*%
X135000000Y-90580000D03*
%TO.P,J4,2,Pin_2*%
%TO.N,0*%
X135000000Y-88040000D03*
D10*
%TO.P,J4,1,Pin_1*%
%TO.N,/SCL*%
X135000000Y-85500000D03*
%TD*%
%TO.P,J2,1,Pin_1*%
%TO.N,/SCL*%
X141500000Y-83460000D03*
D11*
%TO.P,J2,2,Pin_2*%
%TO.N,0*%
X141500000Y-86000000D03*
%TO.P,J2,3,Pin_3*%
%TO.N,/SDA*%
X141500000Y-88540000D03*
%TO.P,J2,4,Pin_4*%
%TO.N,/VIN*%
X141500000Y-91080000D03*
%TD*%
D14*
%TO.P,D1,1,K*%
%TO.N,0*%
X141500000Y-79875000D03*
%TO.P,D1,2,A*%
%TO.N,Net-(D1-A)*%
X141500000Y-78000000D03*
%TD*%
D18*
%TO.P,C2,2*%
%TO.N,/VIN*%
X140500000Y-73550000D03*
%TO.P,C2,1*%
%TO.N,0*%
X140500000Y-75450000D03*
%TD*%
D19*
%TO.P,C1,1*%
%TO.N,0*%
X117950000Y-77050000D03*
%TO.P,C1,2*%
%TO.N,/VDD*%
X116050000Y-77050000D03*
%TD*%
D20*
%TO.P,D3,1,K*%
%TO.N,/TX*%
X113000000Y-87310000D03*
D21*
%TO.P,D3,2,A*%
%TO.N,/RX*%
X113000000Y-79690000D03*
%TD*%
D22*
%TO.N,0*%
X132500000Y-74500000D03*
%TO.N,/PD4*%
X127500000Y-79500000D03*
%TO.N,/PC3*%
X126000000Y-81500000D03*
%TO.N,/SCL*%
X137500000Y-83000000D03*
%TO.N,0*%
X140000000Y-85500000D03*
X142000000Y-76500000D03*
X141500000Y-81000000D03*
X108500000Y-86000000D03*
X117000000Y-85500000D03*
X117500000Y-75500000D03*
X126500000Y-77068300D03*
%TD*%
D23*
%TO.N,/VIN*%
X108500000Y-78540000D02*
X106500000Y-76540000D01*
X130500000Y-71000000D02*
X137950000Y-71000000D01*
X106500000Y-76540000D02*
X106500000Y-69000000D01*
X106500000Y-69000000D02*
X111772000Y-69000000D01*
X111772000Y-69000000D02*
X112272000Y-68500000D01*
X112272000Y-68500000D02*
X128000000Y-68500000D01*
X128000000Y-68500000D02*
X130500000Y-71000000D01*
X137950000Y-71000000D02*
X140500000Y-73550000D01*
D24*
%TO.N,/PD7*%
X119650000Y-80000000D02*
X119000000Y-79350000D01*
X119000000Y-79350000D02*
X119000000Y-78325000D01*
X119000000Y-78325000D02*
X120000000Y-77325000D01*
%TO.N,/PD4*%
X127500000Y-79500000D02*
X127500000Y-79000000D01*
X127500000Y-79000000D02*
X127000000Y-78500000D01*
X127000000Y-78500000D02*
X124602600Y-78500000D01*
X124602600Y-78500000D02*
X124128800Y-78973800D01*
X124128800Y-78973800D02*
X124128800Y-79331200D01*
X124128800Y-79331200D02*
X123460000Y-80000000D01*
D23*
%TO.N,0*%
X126193300Y-77375000D02*
X122500000Y-77375000D01*
D25*
X132500000Y-74500000D02*
X134000000Y-74500000D01*
D23*
%TO.N,/VDD*%
X116050000Y-77050000D02*
X116050000Y-74450000D01*
X116050000Y-74450000D02*
X117000000Y-73500000D01*
X117000000Y-73500000D02*
X132450000Y-73500000D01*
X132450000Y-73500000D02*
X132500000Y-73550000D01*
X132500000Y-73550000D02*
X132550000Y-73500000D01*
X132550000Y-73500000D02*
X133625000Y-73500000D01*
X133625000Y-73500000D02*
X133675000Y-73550000D01*
X134175000Y-78050000D02*
X134050000Y-78050000D01*
X134050000Y-78050000D02*
X129500000Y-73500000D01*
D24*
%TO.N,/PC3*%
X126000000Y-80000000D02*
X126000000Y-81500000D01*
%TO.N,/PD6*%
X120920000Y-80000000D02*
X120920000Y-78578368D01*
X120920000Y-78578368D02*
X121590646Y-77907722D01*
X121590646Y-77907722D02*
X121821624Y-78138700D01*
X123178376Y-78138700D02*
X123317076Y-78000000D01*
X121821624Y-78138700D02*
X123178376Y-78138700D01*
X123317076Y-78000000D02*
X126960000Y-78000000D01*
X126960000Y-78000000D02*
X127460000Y-77500000D01*
X127460000Y-77500000D02*
X130500000Y-80540000D01*
D23*
%TO.N,0*%
X126500000Y-77068300D02*
X126193300Y-77375000D01*
D24*
%TO.N,/SCL*%
X136550000Y-82050000D02*
X137500000Y-83000000D01*
X136500000Y-82050000D02*
X136550000Y-82050000D01*
X123460000Y-85400000D02*
X123460000Y-84975000D01*
X123460000Y-84975000D02*
X124061200Y-84373800D01*
X124061200Y-84373800D02*
X130846488Y-84373800D01*
X130846488Y-84373800D02*
X131220288Y-84000000D01*
X131220288Y-84000000D02*
X134550000Y-84000000D01*
X134550000Y-84000000D02*
X136500000Y-82050000D01*
%TO.N,/SDA*%
X134500000Y-82050000D02*
X134403800Y-81953800D01*
X129546200Y-81953800D02*
X129000000Y-82500000D01*
X134403800Y-81953800D02*
X129546200Y-81953800D01*
X129000000Y-82500000D02*
X124000000Y-82500000D01*
X124000000Y-82500000D02*
X122190000Y-84310000D01*
X122190000Y-84310000D02*
X122190000Y-85400000D01*
X138500000Y-90000000D02*
X135580000Y-90000000D01*
D23*
%TO.N,/VIN*%
X135380000Y-93500000D02*
X135000000Y-93120000D01*
X143500000Y-91000000D02*
X143500000Y-91580000D01*
D24*
%TO.N,/SCL*%
X136500000Y-82050000D02*
X136500000Y-84000000D01*
D23*
%TO.N,/VIN*%
X143500000Y-91580000D02*
X141580000Y-93500000D01*
X141580000Y-93500000D02*
X135380000Y-93500000D01*
D24*
%TO.N,/SCL*%
X136500000Y-84000000D02*
X135000000Y-85500000D01*
%TO.N,/SDA*%
X135580000Y-90000000D02*
X135000000Y-90580000D01*
%TO.N,/PC2*%
X126000000Y-87000000D02*
X121500000Y-91500000D01*
X126000000Y-85400000D02*
X126000000Y-87000000D01*
%TO.N,/PC1*%
X124730000Y-85730000D02*
X118960000Y-91500000D01*
%TO.N,/RESET*%
X116420000Y-88987400D02*
X119650000Y-85757400D01*
X116420000Y-91500000D02*
X116420000Y-88987400D01*
X119650000Y-85757400D02*
X119650000Y-85400000D01*
%TO.N,/PC1*%
X124730000Y-85400000D02*
X124730000Y-85730000D01*
%TO.N,/SDA*%
X141500000Y-88540000D02*
X139960000Y-88540000D01*
X139960000Y-88540000D02*
X138500000Y-90000000D01*
D23*
%TO.N,0*%
X141550000Y-76500000D02*
X140500000Y-75450000D01*
X142000000Y-76500000D02*
X141550000Y-76500000D01*
X141500000Y-79875000D02*
X141500000Y-81000000D01*
X140500000Y-86000000D02*
X140000000Y-85500000D01*
X141500000Y-86000000D02*
X140500000Y-86000000D01*
%TO.N,/VDD*%
X118380000Y-80000000D02*
X118380000Y-81380000D01*
X118380000Y-81380000D02*
X118556400Y-81556400D01*
X118556400Y-81556400D02*
X123886600Y-81556400D01*
X123886600Y-81556400D02*
X124730000Y-80713000D01*
X124730000Y-80713000D02*
X124730000Y-80000000D01*
D24*
%TO.N,/SDA*%
X134500000Y-82050000D02*
X135288700Y-81261300D01*
X135288700Y-81261300D02*
X137174886Y-81261300D01*
X138500000Y-82586414D02*
X138500000Y-90000000D01*
X137174886Y-81261300D02*
X138500000Y-82586414D01*
D23*
%TO.N,/VIN*%
X143500000Y-75825000D02*
X143500000Y-91000000D01*
X143500000Y-91000000D02*
X141580000Y-91000000D01*
X141580000Y-91000000D02*
X141500000Y-91080000D01*
X140500000Y-73550000D02*
X141225000Y-73550000D01*
X141225000Y-73550000D02*
X143500000Y-75825000D01*
%TO.N,0*%
X108500000Y-86000000D02*
X108500000Y-85753900D01*
X108500000Y-83620000D02*
X108500000Y-86000000D01*
X117100000Y-85400000D02*
X117000000Y-85500000D01*
X118380000Y-85400000D02*
X117100000Y-85400000D01*
X117950000Y-75950000D02*
X117500000Y-75500000D01*
X117950000Y-77050000D02*
X117950000Y-75950000D01*
D24*
%TO.N,/PD5*%
X122190000Y-80000000D02*
X122190000Y-80425000D01*
X129000000Y-76500000D02*
X130500000Y-78000000D01*
X122190000Y-80425000D02*
X121588800Y-81026200D01*
X121588800Y-81026200D02*
X120318800Y-81026200D01*
X120318800Y-81026200D02*
X120318800Y-78681200D01*
X120318800Y-78681200D02*
X121500000Y-77500000D01*
X121932924Y-76500000D02*
X129000000Y-76500000D01*
X121500000Y-77500000D02*
X121500000Y-76932924D01*
X121500000Y-76932924D02*
X121932924Y-76500000D01*
%TO.N,/SDA*%
X134500000Y-82050000D02*
X134500000Y-82500000D01*
D23*
%TO.N,Net-(D1-A)*%
X138675000Y-78050000D02*
X141450000Y-78050000D01*
X141450000Y-78050000D02*
X141500000Y-78000000D01*
D24*
%TO.N,Net-(D2-A)*%
X120000000Y-75500000D02*
X122500000Y-75500000D01*
%TO.N,/TX*%
X108500000Y-76000000D02*
X109000000Y-76000000D01*
X109000000Y-76000000D02*
X111000000Y-78000000D01*
X111000000Y-78000000D02*
X111000000Y-85310000D01*
X111000000Y-85310000D02*
X113000000Y-87310000D01*
%TO.N,/RX*%
X113000000Y-79690000D02*
X115635000Y-79690000D01*
X115635000Y-79690000D02*
X120920000Y-84975000D01*
X120920000Y-84975000D02*
X120920000Y-85400000D01*
X108500000Y-73460000D02*
X113000000Y-77960000D01*
X113000000Y-77960000D02*
X113000000Y-79690000D01*
D23*
%TO.N,/VIN*%
X136175000Y-73550000D02*
X138175000Y-73550000D01*
X133675000Y-75450000D02*
X133675000Y-76050000D01*
X138175000Y-73550000D02*
X139175000Y-73550000D01*
X133675000Y-76050000D02*
X134175000Y-76550000D01*
X134175000Y-76550000D02*
X138175000Y-76550000D01*
X138175000Y-76550000D02*
X138175000Y-73550000D01*
X139175000Y-73550000D02*
X140175000Y-73550000D01*
%TO.N,/VDD*%
X134175000Y-78050000D02*
X136850000Y-78050000D01*
X136175000Y-80050000D02*
X134175000Y-78050000D01*
X134175000Y-80225000D02*
X134175000Y-78050000D01*
X116050000Y-77050000D02*
X116050000Y-77670000D01*
X116050000Y-77670000D02*
X118380000Y-80000000D01*
%TD*%
M02*
